<?xml version="1.0" encoding="UTF-8"?>
<!--Generator: CustomSymbols by @serious_bret-->
<!DOCTYPE svg
PUBLIC "-//W3C//DTD SVG 1.1//EN"
       "http://www.w3.org/Graphics/SVG/1.1/DTD/svg11.dtd">
<svg version="1.1" xmlns="http://www.w3.org/2000/svg" xmlns:xlink="http://www.w3.org/1999/xlink" width="3300" height="2200">
 <g id="Notes">
  <rect height="2200" id="artboard" style="fill:white;opacity:1" width="3300" x="0" y="0"/>
  <line id="" style="fill:none;stroke:black;opacity:1;stroke-width:0.5;" x1="263" x2="3036" y1="292" y2="292"/>
  <text id="reftext1" style="stroke:none;fill:black;font-family:-apple-system,&quot;SF Pro Display&quot;,&quot;SF Pro Text&quot;,Helvetica,sans-serif;font-weight:bold;" transform="matrix(1 0 0 1 263 322)">Weight/Scale Variations</text>
  <text id="reftext2" style="stroke:none;fill:black;font-family:-apple-system,&quot;SF Pro Display&quot;,&quot;SF Pro Text&quot;,Helvetica,sans-serif;text-anchor:middle;" transform="matrix(1 0 0 1 559.711 322)">Ultralight</text>
  <text style="stroke:none;fill:black;font-family:-apple-system,&quot;SF Pro Display&quot;,&quot;SF Pro Text&quot;,Helvetica,sans-serif;text-anchor:middle;" transform="matrix(1 0 0 1 856.422 322)">Thin</text>
  <text style="stroke:none;fill:black;font-family:-apple-system,&quot;SF Pro Display&quot;,&quot;SF Pro Text&quot;,Helvetica,sans-serif;text-anchor:middle;" transform="matrix(1 0 0 1 1153.13 322)">Light</text>
  <text style="stroke:none;fill:black;font-family:-apple-system,&quot;SF Pro Display&quot;,&quot;SF Pro Text&quot;,Helvetica,sans-serif;text-anchor:middle;" transform="matrix(1 0 0 1 1449.84 322)">Regular</text>
  <text style="stroke:none;fill:black;font-family:-apple-system,&quot;SF Pro Display&quot;,&quot;SF Pro Text&quot;,Helvetica,sans-serif;text-anchor:middle;" transform="matrix(1 0 0 1 1746.56 322)">Medium</text>
  <text style="stroke:none;fill:black;font-family:-apple-system,&quot;SF Pro Display&quot;,&quot;SF Pro Text&quot;,Helvetica,sans-serif;text-anchor:middle;" transform="matrix(1 0 0 1 2043.27 322)">Semibold</text>
  <text style="stroke:none;fill:black;font-family:-apple-system,&quot;SF Pro Display&quot;,&quot;SF Pro Text&quot;,Helvetica,sans-serif;text-anchor:middle;" transform="matrix(1 0 0 1 2339.98 322)">Bold</text>
  <text style="stroke:none;fill:black;font-family:-apple-system,&quot;SF Pro Display&quot;,&quot;SF Pro Text&quot;,Helvetica,sans-serif;text-anchor:middle;" transform="matrix(1 0 0 1 2636.69 322)">Heavy</text>
  <text style="stroke:none;fill:black;font-family:-apple-system,&quot;SF Pro Display&quot;,&quot;SF Pro Text&quot;,Helvetica,sans-serif;text-anchor:middle;" transform="matrix(1 0 0 1 2933.4 322)">Black</text>
  <line id="" style="fill:none;stroke:black;opacity:1;stroke-width:0.5;" x1="263" x2="3036" y1="1903" y2="1903"/>
  <g id="" transform="matrix(1 0 0 1 263 1933)">
   <path d="M9.24805 0.830078C13.5547 0.830078 17.1387-2.74414 17.1387-7.05078C17.1387-11.3574 13.5449-14.9316 9.23828-14.9316C4.94141-14.9316 1.36719-11.3574 1.36719-7.05078C1.36719-2.74414 4.95117 0.830078 9.24805 0.830078ZM9.24805-0.654297C5.70312-0.654297 2.87109-3.49609 2.87109-7.05078C2.87109-10.6055 5.69336-13.4473 9.23828-13.4473C12.793-13.4473 15.6348-10.6055 15.6445-7.05078C15.6543-3.49609 12.8027-0.654297 9.24805-0.654297ZM6.39648-6.31836L8.50586-6.31836L8.50586-4.19922C8.50586-3.75977 8.79883-3.45703 9.22852-3.45703C9.67773-3.45703 9.9707-3.75977 9.9707-4.19922L9.9707-6.31836L12.0996-6.31836C12.5391-6.31836 12.8418-6.61133 12.8418-7.04102C12.8418-7.48047 12.5391-7.7832 12.0996-7.7832L9.9707-7.7832L9.9707-9.89258C9.9707-10.3418 9.67773-10.6445 9.22852-10.6445C8.79883-10.6445 8.50586-10.3418 8.50586-9.89258L8.50586-7.7832L6.39648-7.7832C5.94727-7.7832 5.64453-7.48047 5.64453-7.04102C5.64453-6.61133 5.94727-6.31836 6.39648-6.31836Z"/>
  </g>
  <g id="" transform="matrix(1 0 0 1 281.506 1933)">
   <path d="M11.709 2.91016C17.1582 2.91016 21.6699-1.61133 21.6699-7.05078C21.6699-12.5 17.1484-17.0117 11.6992-17.0117C6.25977-17.0117 1.74805-12.5 1.74805-7.05078C1.74805-1.61133 6.26953 2.91016 11.709 2.91016ZM11.709 1.25C7.09961 1.25 3.41797-2.44141 3.41797-7.05078C3.41797-11.6602 7.08984-15.3516 11.6992-15.3516C16.3086-15.3516 20-11.6602 20.0098-7.05078C20.0195-2.44141 16.3184 1.25 11.709 1.25ZM7.98828-6.23047L10.8789-6.23047L10.8789-3.32031C10.8789-2.83203 11.2109-2.5 11.6895-2.5C12.1777-2.5 12.5195-2.83203 12.5195-3.32031L12.5195-6.23047L15.4297-6.23047C15.918-6.23047 16.25-6.5625 16.25-7.04102C16.25-7.5293 15.918-7.87109 15.4297-7.87109L12.5195-7.87109L12.5195-10.7617C12.5195-11.2695 12.1777-11.6016 11.6895-11.6016C11.2109-11.6016 10.8789-11.2598 10.8789-10.7617L10.8789-7.87109L7.98828-7.87109C7.48047-7.87109 7.14844-7.5293 7.14844-7.04102C7.14844-6.5625 7.49023-6.23047 7.98828-6.23047Z"/>
  </g>
  <g id="" transform="matrix(1 0 0 1 304.924 1933)">
   <path d="M14.9707 5.66406C21.9336 5.66406 27.6953-0.0976562 27.6953-7.05078C27.6953-14.0137 21.9238-19.7754 14.9609-19.7754C8.00781-19.7754 2.25586-14.0137 2.25586-7.05078C2.25586-0.0976562 8.01758 5.66406 14.9707 5.66406ZM14.9707 3.84766C8.93555 3.84766 4.08203-1.01562 4.08203-7.05078C4.08203-13.0957 8.92578-17.9492 14.9609-17.9492C21.0059-17.9492 25.8594-13.0957 25.8691-7.05078C25.8789-1.01562 21.0156 3.84766 14.9707 3.84766ZM10.0586-6.14258L14.0625-6.14258L14.0625-2.12891C14.0625-1.5918 14.4336-1.2207 14.9512-1.2207C15.4883-1.2207 15.8594-1.5918 15.8594-2.12891L15.8594-6.14258L19.8828-6.14258C20.4102-6.14258 20.791-6.51367 20.791-7.03125C20.791-7.56836 20.4199-7.94922 19.8828-7.94922L15.8594-7.94922L15.8594-11.9531C15.8594-12.5098 15.4883-12.8809 14.9512-12.8809C14.4336-12.8809 14.0625-12.5 14.0625-11.9531L14.0625-7.94922L10.0586-7.94922C9.50195-7.94922 9.13086-7.56836 9.13086-7.03125C9.13086-6.51367 9.51172-6.14258 10.0586-6.14258Z"/>
  </g>
  <text style="stroke:none;fill:black;font-family:-apple-system,&quot;SF Pro Display&quot;,&quot;SF Pro Text&quot;,Helvetica,sans-serif;font-weight:bold;" transform="matrix(1 0 0 1 263 1953)">Design Variations</text>
  <text style="stroke:none;fill:black;font-family:-apple-system,&quot;SF Pro Display&quot;,&quot;SF Pro Text&quot;,Helvetica,sans-serif;" transform="matrix(1 0 0 1 263 1971)">Symbols are supported in up to nine weights and three scales.</text>
  <text style="stroke:none;fill:black;font-family:-apple-system,&quot;SF Pro Display&quot;,&quot;SF Pro Text&quot;,Helvetica,sans-serif;" transform="matrix(1 0 0 1 263 1989)">For optimal layout with text and other symbols, vertically align</text>
  <text style="stroke:none;fill:black;font-family:-apple-system,&quot;SF Pro Display&quot;,&quot;SF Pro Text&quot;,Helvetica,sans-serif;" transform="matrix(1 0 0 1 263 2007)">symbols with the adjacent text.</text>
  <line id="" style="fill:none;stroke:#00AEEF;stroke-width:0.5;opacity:1.0;" x1="776" x2="776" y1="1919" y2="1933"/>
  <g id="" transform="matrix(1 0 0 1 776 1933)">
   <path d="M3.31055 0.126953C3.82812 0.126953 4.08203-0.0683594 4.26758-0.605469L5.52734-4.0625L11.2891-4.0625L12.5488-0.605469C12.7344-0.0683594 12.9883 0.126953 13.4961 0.126953C14.0137 0.126953 14.3457-0.185547 14.3457-0.673828C14.3457-0.839844 14.3164-0.986328 14.2383-1.20117L9.6582-13.3887C9.43359-13.9941 9.0332-14.2871 8.4082-14.2871C7.80273-14.2871 7.39258-13.9941 7.17773-13.3984L2.59766-1.19141C2.51953-0.976562 2.49023-0.830078 2.49023-0.664062C2.49023-0.175781 2.80273 0.126953 3.31055 0.126953ZM6.00586-5.53711L8.37891-12.1094L8.42773-12.1094L10.8008-5.53711Z"/>
  </g>
  <line id="" style="fill:none;stroke:#00AEEF;stroke-width:0.5;opacity:1.0;" x1="792.836" x2="792.836" y1="1919" y2="1933"/>
  <text style="stroke:none;fill:black;font-family:-apple-system,&quot;SF Pro Display&quot;,&quot;SF Pro Text&quot;,Helvetica,sans-serif;font-weight:bold;" transform="matrix(1 0 0 1 776 1953)">Margins</text>
  <text style="stroke:none;fill:black;font-family:-apple-system,&quot;SF Pro Display&quot;,&quot;SF Pro Text&quot;,Helvetica,sans-serif;" transform="matrix(1 0 0 1 776 1971)">Leading and trailing margins on the left and right side of each symbol</text>
  <text style="stroke:none;fill:black;font-family:-apple-system,&quot;SF Pro Display&quot;,&quot;SF Pro Text&quot;,Helvetica,sans-serif;" transform="matrix(1 0 0 1 776 1989)">can be adjusted by modifying the x-location of the margin guidelines.</text>
  <text style="stroke:none;fill:black;font-family:-apple-system,&quot;SF Pro Display&quot;,&quot;SF Pro Text&quot;,Helvetica,sans-serif;" transform="matrix(1 0 0 1 776 2007)">Modifications are automatically applied proportionally to all</text>
  <text style="stroke:none;fill:black;font-family:-apple-system,&quot;SF Pro Display&quot;,&quot;SF Pro Text&quot;,Helvetica,sans-serif;" transform="matrix(1 0 0 1 776 2025)">scales and weights.</text>
  <g id="" transform="matrix(1 0 0 1 1289 1933)">
   <path d="M2.8418 1.86523L4.54102 3.57422C5.40039 4.44336 6.38672 4.38477 7.31445 3.35938L17.4902-7.85156C17.7539-7.76367 18.0273-7.7832 18.3398-7.8418L19.4043-8.03711L20.0684-7.36328L20.0293-6.80664C19.9902-6.30859 20.1172-5.92773 20.6055-5.44922L21.3672-4.70703C21.8457-4.22852 22.4609-4.19922 22.9297-4.66797L25.8398-7.58789C26.3086-8.05664 26.2891-8.65234 25.8105-9.13086L25.0391-9.89258C24.5605-10.3711 24.1895-10.5273 23.7109-10.4883L23.1348-10.4395L22.4902-11.0742L22.7344-12.1973C22.8613-12.7637 22.7051-13.2031 22.1191-13.7891L19.9219-15.9766C16.582-19.2969 12.1484-19.2188 9.25781-16.3281C8.83789-15.918 8.80859-15.3418 9.04297-14.9512C9.27734-14.5898 9.73633-14.3555 10.3809-14.5215C11.8457-14.8633 13.3691-14.9219 14.7949-13.9844L14.209-12.5293C14.0137-12.0508 13.9844-11.6504 14.1113-11.2891L3.04688-0.898438C2.06055 0.0195312 1.98242 0.996094 2.8418 1.86523ZM10.752-15.957C13.1836-17.7344 16.4746-17.4316 18.7012-15.2051L21.1328-12.793C21.3672-12.5586 21.4062-12.373 21.3379-12.0312L21.0156-10.5469L22.5195-9.0625L23.5059-9.12109C23.7598-9.13086 23.8379-9.11133 24.0332-8.91602L24.6094-8.33984L22.168-5.89844L21.5918-6.47461C21.3965-6.66992 21.3672-6.74805 21.377-7.01172L21.4453-7.98828L19.9512-9.47266L18.4277-9.21875C18.1055-9.15039 17.959-9.17969 17.7148-9.41406L15.7129-11.416C15.459-11.6504 15.4297-11.8164 15.5859-12.1875L16.4648-14.2773C14.9023-15.7324 12.8711-16.3574 10.8398-15.7617C10.6836-15.7227 10.625-15.8496 10.752-15.957ZM5.27344 2.30469L4.10156 1.14258C3.63281 0.683594 3.74023 0.341797 4.14062-0.0195312L14.9512-10.1953L16.416-8.71094L6.42578 2.27539C6.07422 2.67578 5.74219 2.77344 5.27344 2.30469Z"/>
  </g>
  <text style="stroke:none;fill:black;font-family:-apple-system,&quot;SF Pro Display&quot;,&quot;SF Pro Text&quot;,Helvetica,sans-serif;font-weight:bold;" transform="matrix(1 0 0 1 1289 1953)">Exporting</text>
  <text style="stroke:none;fill:black;font-family:-apple-system,&quot;SF Pro Display&quot;,&quot;SF Pro Text&quot;,Helvetica,sans-serif;" transform="matrix(1 0 0 1 1289 1971)">Symbols should be outlined when exporting to ensure the</text>
  <text style="stroke:none;fill:black;font-family:-apple-system,&quot;SF Pro Display&quot;,&quot;SF Pro Text&quot;,Helvetica,sans-serif;" transform="matrix(1 0 0 1 1289 1989)">design is preserved when submitting to Xcode.</text>
  <text id="template-version" style="stroke:none;fill:black;font-family:-apple-system,&quot;SF Pro Display&quot;,&quot;SF Pro Text&quot;,Helvetica,sans-serif;text-anchor:end;" transform="matrix(1 0 0 1 3036 1933)">Template v.2.0</text>
  <text style="stroke:none;fill:black;font-family:-apple-system,&quot;SF Pro Display&quot;,&quot;SF Pro Text&quot;,Helvetica,sans-serif;text-anchor:end;" transform="matrix(1 0 0 1 3036 1951)">Requires Xcode 12 or greater</text>
  <text style="stroke:none;fill:black;font-family:-apple-system,&quot;SF Pro Display&quot;,&quot;SF Pro Text&quot;,Helvetica,sans-serif;" transform="matrix(1 0 0 1 263 726)">Small</text>
  <text style="stroke:none;fill:black;font-family:-apple-system,&quot;SF Pro Display&quot;,&quot;SF Pro Text&quot;,Helvetica,sans-serif;" transform="matrix(1 0 0 1 263 1156)">Medium</text>
  <text style="stroke:none;fill:black;font-family:-apple-system,&quot;SF Pro Display&quot;,&quot;SF Pro Text&quot;,Helvetica,sans-serif;" transform="matrix(1 0 0 1 263 1586)">Large</text>
 </g>
 <g id="Guides">
  <g id="H-reference" style="fill:#27AAE1;stroke:none;" transform="matrix(1 0 0 1 339 696)">
   <path d="M0.976562 0L3.66211 0L12.9883-24.4629L45.752-24.4629L55.127 0L57.7637 0L30.6152-70.459L28.125-70.459ZM29.3457-67.1387L29.4434-67.1387L44.873-26.709L13.8672-26.709Z"/>
  </g>
  <line id="Baseline-S" style="fill:none;stroke:#27AAE1;opacity:1;stroke-width:0.5;" x1="263" x2="3036" y1="696" y2="696"/>
  <line id="Capline-S" style="fill:none;stroke:#27AAE1;opacity:1;stroke-width:0.5;" x1="263" x2="3036" y1="625.541" y2="625.541"/>
  <g id="H-reference" style="fill:#27AAE1;stroke:none;" transform="matrix(1 0 0 1 339 1126)">
   <path d="M0.976562 0L3.66211 0L12.9883-24.4629L45.752-24.4629L55.127 0L57.7637 0L30.6152-70.459L28.125-70.459ZM29.3457-67.1387L29.4434-67.1387L44.873-26.709L13.8672-26.709Z"/>
  </g>
  <line id="Baseline-M" style="fill:none;stroke:#27AAE1;opacity:1;stroke-width:0.5;" x1="263" x2="3036" y1="1126" y2="1126"/>
  <line id="Capline-M" style="fill:none;stroke:#27AAE1;opacity:1;stroke-width:0.5;" x1="263" x2="3036" y1="1055.54" y2="1055.54"/>
  <g id="H-reference" style="fill:#27AAE1;stroke:none;" transform="matrix(1 0 0 1 339 1556)">
   <path d="M0.976562 0L3.66211 0L12.9883-24.4629L45.752-24.4629L55.127 0L57.7637 0L30.6152-70.459L28.125-70.459ZM29.3457-67.1387L29.4434-67.1387L44.873-26.709L13.8672-26.709Z"/>
  </g>
  <line id="Baseline-L" style="fill:none;stroke:#27AAE1;opacity:1;stroke-width:0.5;" x1="263" x2="3036" y1="1556" y2="1556"/>
  <line id="Capline-L" style="fill:none;stroke:#27AAE1;opacity:1;stroke-width:0.5;" x1="263" x2="3036" y1="1485.54" y2="1485.54"/>
  <line id="left-margin" x1="1422.7502935112846" x2="1422.7502935112846" y1="1030.79" y2="1150.12" style="fill:none;stroke:#00AEEF;stroke-width:0.5;opacity:1.0;"/>
  <line id="right-margin" x1="1479.5097064887152" x2="1479.5097064887152" y1="1030.79" y2="1150.12" style="fill:none;stroke:#00AEEF;stroke-width:0.5;opacity:1.0;"/>
 </g>
 <g id="Symbols">
  <g id="Black-L" transform="matrix(1.0,0.0,0.0,1.0,2898.070178629557,1475.3233447265625)">  <path stroke-width="1.8029999732971191px" fill="#9b247f" fill-rule="nonzero" stroke="none" stroke-opacity="1" xmlns:xlink="http://www.w3.org/1999/xlink" stroke-linecap="butt" stroke-linejoin="miter" stroke-dasharray="none" stroke-miterlimit="4" fill-opacity="1" version="1.1" d="M73.821,35.834C73.828,16.508,59.327,0.255,40.125,-1.934C20.923,-4.122,3.137,8.45,-1.205,27.283C-5.548,46.115,4.936,65.207,23.158,71.648L20.735,69.82L31.733,85.285L35.834,91.052L39.933,85.283L50.921,69.819L48.499,71.647C63.671,66.275,73.814,51.929,73.821,35.834ZM63.761,35.83C63.756,47.665,56.297,58.213,45.141,62.163L43.641,62.694L42.72,63.992L31.732,79.456L39.931,79.454L28.933,63.99L28.011,62.693L26.511,62.162C13.113,57.427,5.405,43.389,8.598,29.543C11.791,15.697,24.868,6.453,38.986,8.062C53.104,9.671,63.766,21.621,63.761,35.83Z"/>
</g>
  <g id="Heavy-L" transform="matrix(1.0,0.0,0.0,1.0,2601.360178629557,1475.3233447265625)">  <path fill-rule="nonzero" stroke="none" stroke-width="1.8029999732971191px" fill-opacity="1" stroke-linejoin="miter" stroke-linecap="butt" stroke-dasharray="none" fill="#9b247f" xmlns:xlink="http://www.w3.org/1999/xlink" version="1.1" stroke-opacity="1" stroke-miterlimit="4" d="M73.271,35.834C73.277,16.787,58.987,0.77,40.063,-1.387C21.139,-3.543,3.611,8.847,-0.669,27.406C-4.948,45.965,5.384,64.781,23.341,71.128L21.184,69.501L32.182,84.966L35.834,90.101L39.484,84.964L50.472,69.5L48.315,71.128C63.267,65.833,73.263,51.696,73.271,35.834ZM64.312,35.83C64.306,47.898,56.701,58.654,45.325,62.683L43.989,63.156L43.169,64.311L32.181,79.775L39.483,79.773L28.484,64.309L27.663,63.154L26.327,62.682C12.666,57.853,4.805,43.539,8.061,29.419C11.317,15.3,24.652,5.874,39.048,7.515C53.445,9.155,64.317,21.341,64.312,35.831Z"/>
</g>
  <g id="Bold-L" transform="matrix(1.0,0.0,0.0,1.0,2304.650178629557,1475.3233447265625)">  <path fill-opacity="1" stroke-dasharray="none" stroke-linejoin="miter" stroke-linecap="butt" stroke-opacity="1" stroke="none" fill="#9b247f" version="1.1" stroke-miterlimit="4" fill-rule="nonzero" stroke-width="1.8029999732971191px" xmlns:xlink="http://www.w3.org/1999/xlink" d="M72.72,35.834C72.726,17.067,58.646,1.286,40.001,-0.839C21.355,-2.964,4.085,9.244,-0.132,27.53C-4.349,45.816,5.832,64.355,23.525,70.609L21.633,69.182L32.631,84.646L35.834,89.15L39.035,84.645L50.023,69.181L48.132,70.608C62.863,65.392,72.713,51.462,72.72,35.834ZM64.863,35.83C64.857,48.132,57.104,59.096,45.509,63.202L44.337,63.617L43.618,64.63L32.63,80.094L39.034,80.093L28.036,64.628L27.315,63.615L26.143,63.201C12.218,58.279,4.205,43.688,7.524,29.296C10.843,14.903,24.436,5.295,39.111,6.967C53.786,8.64,64.868,21.061,64.863,35.831Z"/>
</g>
  <g id="Semibold-L" transform="matrix(1.0,0.0,0.0,1.0,2007.9401786295573,1475.3233447265625)">  <path version="1.1" fill="#9b247f" stroke-width="1.8029999732971191px" stroke-linejoin="miter" xmlns:xlink="http://www.w3.org/1999/xlink" stroke="none" fill-opacity="1" stroke-miterlimit="4" fill-rule="nonzero" stroke-dasharray="none" stroke-opacity="1" stroke-linecap="butt" d="M72.169,35.833C72.175,17.347,58.305,1.801,39.938,-0.292C21.571,-2.385,4.559,9.641,0.405,27.654C-3.749,45.667,6.279,63.929,23.708,70.09L22.081,68.863L33.08,84.327L35.833,88.199L38.586,84.326L49.574,68.862L47.948,70.089C62.46,64.95,72.162,51.229,72.169,35.834ZM65.413,35.831C65.408,48.365,57.508,59.537,45.693,63.721L44.686,64.078L44.067,64.949L33.079,80.413L38.585,80.412L27.587,64.947L26.967,64.077L25.96,63.72C11.77,58.705,3.606,43.837,6.988,29.172C10.369,14.507,24.22,4.716,39.173,6.42C54.126,8.124,65.418,20.781,65.413,35.831Z"/>
</g>
  <g id="Medium-L" transform="matrix(1.0,0.0,0.0,1.0,1711.2301786295573,1475.3233447265625)">  <path fill-opacity="1" stroke-opacity="1" stroke-width="1.8029999732971191px" fill="#9b247f" stroke-linecap="butt" stroke-dasharray="none" stroke-linejoin="miter" xmlns:xlink="http://www.w3.org/1999/xlink" stroke="none" version="1.1" fill-rule="nonzero" stroke-miterlimit="4" d="M71.618,35.833C71.624,17.627,57.964,2.317,39.876,0.255C21.787,-1.806,5.032,10.037,0.941,27.778C-3.149,45.518,6.727,63.503,23.892,69.57L22.53,68.543L33.528,84.008L35.833,87.249L38.137,84.007L49.125,68.542L47.764,69.57C62.056,64.509,71.611,50.995,71.618,35.833ZM65.964,35.831C65.958,48.599,57.912,59.979,45.877,64.24L45.034,64.539L44.516,65.268L33.528,80.732L38.136,80.731L27.138,65.267L26.619,64.538L25.776,64.24C11.323,59.13,3.006,43.986,6.451,29.048C9.895,14.11,24.004,4.137,39.235,5.873C54.467,7.609,65.969,20.501,65.964,35.831Z"/>
</g>
  <g id="Regular-L" transform="matrix(1.0,0.0,0.0,1.0,1414.5201786295572,1475.3233447265625)">  <path stroke-width="1.8029999732971191px" fill-opacity="1" fill="#9b247f" stroke-dasharray="none" stroke-opacity="1" xmlns:xlink="http://www.w3.org/1999/xlink" stroke-linejoin="miter" stroke-miterlimit="4" stroke-linecap="butt" version="1.1" fill-rule="nonzero" stroke="none" d="M71.067,35.833C71.073,17.907,57.624,2.833,39.813,0.803C22.003,-1.227,5.506,10.434,1.478,27.901C-2.55,45.369,7.175,63.077,24.075,69.051L22.979,68.224L33.977,83.689L35.833,86.298L37.688,83.688L48.676,68.223L47.58,69.051C61.652,64.068,71.061,50.762,71.067,35.833ZM66.515,35.831C66.509,48.832,58.316,60.42,46.06,64.76L45.382,65L44.965,65.587L33.977,81.051L37.687,81.05L26.689,65.586L26.272,64.999L25.593,64.759C10.875,59.556,2.406,44.135,5.914,28.924C9.422,13.713,23.788,3.558,39.298,5.326C54.808,7.093,66.52,20.221,66.515,35.831Z"/>
</g>
  <g id="Light-L" transform="matrix(1.0,0.0,0.0,1.0,1117.8101786295574,1475.3233447265625)">  <path stroke-dasharray="none" stroke="none" fill="#9b247f" stroke-miterlimit="4" fill-opacity="1" stroke-linejoin="miter" stroke-linecap="butt" fill-rule="nonzero" stroke-opacity="1" stroke-width="1.8029999732971191px" xmlns:xlink="http://www.w3.org/1999/xlink" version="1.1" d="M70.688,35.833C70.694,18.1,57.389,3.188,39.77,1.179C22.152,-0.829,5.832,10.707,1.848,27.987C-2.137,45.266,7.483,62.783,24.202,68.693L23.288,68.004L34.286,83.469L35.833,85.643L37.378,83.468L48.366,68.004L47.453,68.693C61.374,63.764,70.681,50.601,70.688,35.833ZM66.894,35.831C66.888,48.993,58.594,60.724,46.187,65.117L45.621,65.317L45.274,65.806L34.286,81.271L37.378,81.27L26.38,65.806L26.032,65.317L25.466,65.117C10.566,59.85,1.993,44.238,5.544,28.839C9.095,13.44,23.639,3.159,39.341,4.949C55.042,6.738,66.9,20.028,66.894,35.832Z"/>
</g>
  <g id="Thin-L" transform="matrix(1.0,0.0,0.0,1.0,821.1001786295574,1475.3233447265625)">  <path stroke-miterlimit="4" xmlns:xlink="http://www.w3.org/1999/xlink" stroke-width="1.8029999732971191px" stroke-opacity="1" version="1.1" fill="#9b247f" fill-opacity="1" stroke="none" stroke-dasharray="none" stroke-linecap="butt" fill-rule="nonzero" stroke-linejoin="miter" d="M70.309,35.833C70.314,18.293,57.154,3.543,39.727,1.556C22.301,-0.43,6.159,10.981,2.218,28.072C-1.724,45.163,7.791,62.49,24.328,68.336L23.598,67.785L34.596,83.249L35.833,84.989L37.069,83.248L48.057,67.784L47.327,68.335C61.096,63.46,70.302,50.44,70.309,35.833ZM67.274,35.831C67.268,49.154,58.872,61.028,46.314,65.475L45.861,65.635L45.583,66.026L34.595,81.491L37.069,81.49L26.071,66.026L25.792,65.634L25.34,65.474C10.258,60.143,1.58,44.341,5.175,28.754C8.769,13.167,23.49,2.76,39.384,4.572C55.277,6.383,67.279,19.835,67.274,35.832Z"/>
</g>
  <g id="Ultralight-L" transform="matrix(1.0,0.0,0.0,1.0,524.3901786295573,1475.3233447265625)">  <path version="1.1" fill-opacity="1" stroke-miterlimit="4" stroke-linecap="butt" fill="#9b247f" fill-rule="nonzero" xmlns:xlink="http://www.w3.org/1999/xlink" stroke-linejoin="miter" stroke-dasharray="none" stroke-width="1.8029999732971191px" stroke="none" stroke-opacity="1" d="M69.929,35.833C69.935,18.486,56.92,3.898,39.685,1.933C22.449,-0.031,6.485,11.254,2.587,28.157C-1.311,45.06,8.1,62.197,24.455,67.978L23.907,67.565L34.905,83.029L35.833,84.334L36.76,83.029L47.748,67.564L47.2,67.978C60.818,63.156,69.923,50.279,69.929,35.833ZM67.653,35.832C67.647,49.314,59.15,61.332,46.44,65.832L46.101,65.952L45.892,66.246L34.904,81.71L36.76,81.71L25.762,66.246L25.553,65.952L25.213,65.832C9.95,60.437,1.167,44.444,4.805,28.669C8.443,12.893,23.342,2.361,39.427,4.195C55.512,6.028,67.659,19.643,67.653,35.832Z"/>
</g>
  <g id="Black-M" transform="matrix(1.0,0.0,0.0,1.0,2906.3002935112845,1055.5400390625)">  <path stroke-width="1.8029999732971191px" fill="#9b247f" fill-rule="nonzero" stroke="none" stroke-opacity="1" xmlns:xlink="http://www.w3.org/1999/xlink" stroke-linecap="butt" stroke-linejoin="miter" stroke-dasharray="none" stroke-miterlimit="4" fill-opacity="1" version="1.1" d="M57.226,27.778C57.231,12.797,45.99,0.197,31.105,-1.499C16.22,-3.196,2.432,6.551,-0.934,21.149C-4.301,35.748,3.827,50.548,17.952,55.541L16.073,54.124L24.599,66.112L27.778,70.583L30.956,66.111L39.473,54.123L37.596,55.54C49.357,51.376,57.22,40.255,57.226,27.779ZM49.427,27.775C49.423,36.949,43.641,45.126,34.993,48.189L33.83,48.6L33.116,49.606L24.598,61.594L30.955,61.592L22.429,49.604L21.714,48.599L20.551,48.188C10.165,44.517,4.19,33.635,6.665,22.902C9.14,12.168,19.277,5.002,30.222,6.25C41.166,7.497,49.431,16.76,49.427,27.776Z"/>
</g>
  <g id="Heavy-M" transform="matrix(1.0,0.0,0.0,1.0,2609.5902935112845,1055.5400390625)">  <path fill-rule="nonzero" stroke="none" stroke-width="1.8029999732971191px" fill-opacity="1" stroke-linejoin="miter" stroke-linecap="butt" stroke-dasharray="none" fill="#9b247f" xmlns:xlink="http://www.w3.org/1999/xlink" version="1.1" stroke-opacity="1" stroke-miterlimit="4" d="M56.799,27.778C56.804,13.014,45.726,0.597,31.057,-1.075C16.387,-2.747,2.799,6.858,-0.518,21.245C-3.836,35.632,4.174,50.218,18.094,55.138L16.421,53.877L24.947,65.865L27.778,69.846L30.608,65.864L39.125,53.876L37.454,55.138C49.044,51.033,56.793,40.074,56.799,27.778ZM49.854,27.775C49.85,37.13,43.954,45.469,35.136,48.591L34.1,48.958L33.464,49.853L24.946,61.841L30.607,61.84L22.081,49.852L21.444,48.957L20.409,48.591C9.818,44.847,3.725,33.751,6.249,22.806C8.773,11.861,19.11,4.553,30.27,5.825C41.43,7.097,49.858,16.543,49.854,27.776Z"/>
</g>
  <g id="Bold-M" transform="matrix(1.0,0.0,0.0,1.0,2312.8802935112844,1055.5400390625)">  <path fill-opacity="1" stroke-dasharray="none" stroke-linejoin="miter" stroke-linecap="butt" stroke-opacity="1" stroke="none" fill="#9b247f" version="1.1" stroke-miterlimit="4" fill-rule="nonzero" stroke-width="1.8029999732971191px" xmlns:xlink="http://www.w3.org/1999/xlink" d="M56.372,27.778C56.377,13.231,45.462,0.997,31.008,-0.651C16.554,-2.298,3.166,7.166,-0.102,21.341C-3.371,35.516,4.521,49.887,18.236,54.736L16.769,53.629L25.295,65.617L27.778,69.109L30.259,65.616L38.777,53.628L37.311,54.735C48.731,50.691,56.366,39.893,56.372,27.778ZM50.281,27.776C50.277,37.311,44.267,45.811,35.278,48.994L34.37,49.315L33.812,50.1L25.294,62.088L30.259,62.087L21.733,50.099L21.175,49.314L20.266,48.993C9.471,45.177,3.26,33.867,5.833,22.71C8.405,11.553,18.943,4.104,30.318,5.401C41.694,6.698,50.285,16.326,50.281,27.776Z"/>
</g>
  <g id="Semibold-M" transform="matrix(1.0,0.0,0.0,1.0,2016.1702935112846,1055.5400390625)">  <path version="1.1" fill="#9b247f" stroke-width="1.8029999732971191px" stroke-linejoin="miter" xmlns:xlink="http://www.w3.org/1999/xlink" stroke="none" fill-opacity="1" stroke-miterlimit="4" fill-rule="nonzero" stroke-dasharray="none" stroke-opacity="1" stroke-linecap="butt" d="M55.945,27.778C55.95,13.448,45.198,1.396,30.96,-0.226C16.722,-1.849,3.534,7.473,0.314,21.437C-2.906,35.401,4.868,49.557,18.379,54.333L17.117,53.382L25.643,65.37L27.778,68.372L29.911,65.369L38.429,53.381L37.169,54.333C48.418,50.349,55.94,39.712,55.945,27.778ZM50.708,27.776C50.704,37.492,44.58,46.153,35.421,49.396L34.64,49.673L34.16,50.348L25.642,62.336L29.911,62.335L21.385,50.347L20.905,49.672L20.124,49.396C9.124,45.507,2.795,33.982,5.417,22.614C8.038,11.245,18.775,3.656,30.367,4.977C41.958,6.298,50.712,16.109,50.708,27.776Z"/>
</g>
  <g id="Medium-M" transform="matrix(1.0,0.0,0.0,1.0,1719.4602935112846,1055.5400390625)">  <path fill-opacity="1" stroke-opacity="1" stroke-width="1.8029999732971191px" fill="#9b247f" stroke-linecap="butt" stroke-dasharray="none" stroke-linejoin="miter" xmlns:xlink="http://www.w3.org/1999/xlink" stroke="none" version="1.1" fill-rule="nonzero" stroke-miterlimit="4" d="M55.518,27.778C55.523,13.665,44.934,1.796,30.911,0.198C16.889,-1.4,3.901,7.781,0.73,21.533C-2.441,35.285,5.215,49.227,18.521,53.931L17.465,53.134L25.991,65.122L27.778,67.635L29.563,65.122L38.081,53.134L37.026,53.93C48.105,50.007,55.513,39.531,55.518,27.778ZM51.135,27.776C51.131,37.673,44.893,46.495,35.563,49.799L34.91,50.03L34.508,50.595L25.99,62.583L29.563,62.582L21.037,50.594L20.635,50.029L19.982,49.798C8.777,45.838,2.33,34.098,5.001,22.518C7.671,10.938,18.608,3.207,30.415,4.553C42.223,5.898,51.139,15.892,51.135,27.776Z"/>
</g>
  <g id="Regular-M" transform="matrix(1.0,0.0,0.0,1.0,1422.7502935112846,1055.5400390625)">  <path stroke-width="1.8029999732971191px" fill-opacity="1" fill="#9b247f" stroke-dasharray="none" stroke-opacity="1" xmlns:xlink="http://www.w3.org/1999/xlink" stroke-linejoin="miter" stroke-miterlimit="4" stroke-linecap="butt" version="1.1" fill-rule="nonzero" stroke="none" d="M55.091,27.777C55.096,13.882,44.67,2.196,30.863,0.622C17.057,-0.951,4.268,8.089,1.146,21.629C-1.976,35.169,5.562,48.897,18.663,53.528L17.813,52.887L26.339,64.875L27.778,66.898L29.215,64.874L37.733,52.886L36.884,53.528C47.792,49.665,55.086,39.35,55.091,27.778ZM51.562,27.776C51.557,37.854,45.206,46.837,35.706,50.201L35.18,50.387L34.856,50.842L26.339,62.83L29.215,62.83L20.689,50.842L20.366,50.387L19.839,50.201C8.43,46.168,1.865,34.214,4.585,22.422C7.304,10.63,18.44,2.758,30.463,4.128C42.487,5.499,51.566,15.675,51.562,27.776Z"/>
</g>
  <g id="Light-M" transform="matrix(1.0,0.0,0.0,1.0,1126.0402935112847,1055.5400390625)">  <path stroke-dasharray="none" stroke="none" fill="#9b247f" stroke-miterlimit="4" fill-opacity="1" stroke-linejoin="miter" stroke-linecap="butt" fill-rule="nonzero" stroke-opacity="1" stroke-width="1.8029999732971191px" xmlns:xlink="http://www.w3.org/1999/xlink" version="1.1" d="M54.797,27.777C54.801,14.031,44.488,2.471,30.83,0.914C17.172,-0.642,4.521,8.3,1.432,21.695C-1.656,35.09,5.801,48.669,18.761,53.251L18.053,52.717L26.579,64.705L27.777,66.39L28.975,64.704L37.493,52.716L36.786,53.25C47.577,49.429,54.792,39.225,54.797,27.778ZM51.856,27.776C51.852,37.979,45.421,47.073,35.804,50.478L35.365,50.634L35.096,51.013L26.578,63.001L28.975,63L20.449,51.012L20.18,50.633L19.741,50.478C8.191,46.395,1.545,34.293,4.298,22.356C7.051,10.419,18.325,2.449,30.497,3.836C42.669,5.223,51.86,15.526,51.856,27.776Z"/>
</g>
  <g id="Thin-M" transform="matrix(1.0,0.0,0.0,1.0,829.3302935112847,1055.5400390625)">  <path stroke-miterlimit="4" xmlns:xlink="http://www.w3.org/1999/xlink" stroke-width="1.8029999732971191px" stroke-opacity="1" version="1.1" fill="#9b247f" fill-opacity="1" stroke="none" stroke-dasharray="none" stroke-linecap="butt" fill-rule="nonzero" stroke-linejoin="miter" d="M54.503,27.777C54.507,14.181,44.306,2.746,30.796,1.206C17.287,-0.333,4.774,8.512,1.719,21.761C-1.336,35.01,6.04,48.442,18.859,52.973L18.293,52.546L26.818,64.534L27.777,65.883L28.736,64.534L37.254,52.546L36.687,52.973C47.361,49.194,54.498,39.101,54.503,27.777ZM52.15,27.776C52.146,38.104,45.637,47.308,35.902,50.756L35.551,50.88L35.336,51.183L26.818,63.171L28.735,63.171L20.21,51.183L19.994,50.879L19.643,50.755C7.952,46.623,1.225,34.373,4.011,22.29C6.798,10.207,18.21,2.14,30.53,3.544C42.85,4.948,52.154,15.376,52.15,27.776Z"/>
</g>
  <g id="Ultralight-M" transform="matrix(1.0,0.0,0.0,1.0,532.6202935112847,1055.5400390625)">  <path version="1.1" fill-opacity="1" stroke-miterlimit="4" stroke-linecap="butt" fill="#9b247f" fill-rule="nonzero" xmlns:xlink="http://www.w3.org/1999/xlink" stroke-linejoin="miter" stroke-dasharray="none" stroke-width="1.8029999732971191px" stroke="none" stroke-opacity="1" d="M54.209,27.777C54.213,14.33,44.124,3.021,30.763,1.499C17.403,-0.024,5.027,8.724,2.006,21.827C-1.016,34.93,6.279,48.214,18.957,52.696L18.532,52.376L27.058,64.364L27.777,65.375L28.496,64.363L37.014,52.375L36.589,52.696C47.146,48.958,54.204,38.976,54.209,27.777ZM52.444,27.776C52.44,38.228,45.853,47.544,36,51.033L35.737,51.126L35.576,51.353L27.058,63.341L28.496,63.341L19.97,51.353L19.808,51.126L19.545,51.033C7.713,46.85,0.905,34.453,3.725,22.224C6.545,9.995,18.094,1.831,30.563,3.252C43.032,4.673,52.448,15.227,52.444,27.777Z"/>
</g>
  <g id="Black-S" transform="matrix(1.0,0.0,0.0,1.0,2912.4586898193356,633.1849448242187)">  <path stroke-width="1.8029999732971191px" fill="#9b247f" fill-rule="nonzero" stroke="none" stroke-opacity="1" xmlns:xlink="http://www.w3.org/1999/xlink" stroke-linecap="butt" stroke-linejoin="miter" stroke-dasharray="none" stroke-miterlimit="4" fill-opacity="1" version="1.1" d="M44.808,21.75C44.812,10.02,36.01,0.155,24.355,-1.174C12.7,-2.502,1.904,5.129,-0.732,16.56C-3.368,27.991,2.996,39.579,14.056,43.488L12.586,42.379L19.261,51.766L21.75,55.266L24.238,51.765L30.908,42.378L29.438,43.488C38.647,40.227,44.803,31.52,44.808,21.751ZM38.701,21.748C38.698,28.931,34.171,35.334,27.4,37.732L26.489,38.054L25.93,38.841L19.26,48.228L24.237,48.227L17.562,38.84L17.002,38.053L16.091,37.731C7.959,34.857,3.281,26.336,5.219,17.932C7.157,9.528,15.094,3.917,23.664,4.893C32.233,5.87,38.704,13.123,38.701,21.748Z"/>
</g>
  <g id="Heavy-S" transform="matrix(1.0,0.0,0.0,1.0,2615.7486898193356,633.1849448242187)">  <path fill-rule="nonzero" stroke="none" stroke-width="1.8029999732971191px" fill-opacity="1" stroke-linejoin="miter" stroke-linecap="butt" stroke-dasharray="none" fill="#9b247f" xmlns:xlink="http://www.w3.org/1999/xlink" version="1.1" stroke-opacity="1" stroke-miterlimit="4" d="M44.474,21.75C44.477,10.19,35.803,0.468,24.317,-0.842C12.831,-2.151,2.192,5.37,-0.406,16.635C-3.004,27.9,3.268,39.32,14.168,43.173L12.858,42.186L19.534,51.572L21.75,54.689L23.966,51.571L30.635,42.185L29.326,43.173C38.402,39.959,44.469,31.378,44.474,21.751ZM39.036,21.748C39.032,29.073,34.416,35.602,27.511,38.047L26.701,38.334L26.202,39.035L19.533,48.422L23.965,48.421L17.289,39.034L16.791,38.333L15.98,38.046C7.688,35.115,2.917,26.427,4.893,17.857C6.869,9.287,14.963,3.565,23.701,4.561C32.44,5.557,39.039,12.953,39.036,21.748Z"/>
</g>
  <g id="Bold-S" transform="matrix(1.0,0.0,0.0,1.0,2319.0386898193356,633.1849448242187)">  <path fill-opacity="1" stroke-dasharray="none" stroke-linejoin="miter" stroke-linecap="butt" stroke-opacity="1" stroke="none" fill="#9b247f" version="1.1" stroke-miterlimit="4" fill-rule="nonzero" stroke-width="1.8029999732971191px" xmlns:xlink="http://www.w3.org/1999/xlink" d="M44.139,21.75C44.143,10.36,35.597,0.78,24.279,-0.509C12.962,-1.799,2.479,5.611,-0.08,16.71C-2.64,27.809,3.54,39.062,14.279,42.858L13.13,41.992L19.806,51.378L21.75,54.112L23.693,51.378L30.363,41.991L29.215,42.858C38.157,39.691,44.135,31.236,44.139,21.75ZM39.37,21.748C39.367,29.215,34.661,35.87,27.623,38.362L26.912,38.614L26.475,39.229L19.805,48.615L23.693,48.614L17.017,39.228L16.58,38.613L15.868,38.362C7.416,35.374,2.553,26.517,4.567,17.782C6.581,9.046,14.832,3.214,23.739,4.229C32.647,5.244,39.373,12.783,39.37,21.748Z"/>
</g>
  <g id="Semibold-S" transform="matrix(1.0,0.0,0.0,1.0,2022.328689819336,633.1849448242187)">  <path version="1.1" fill="#9b247f" stroke-width="1.8029999732971191px" stroke-linejoin="miter" xmlns:xlink="http://www.w3.org/1999/xlink" stroke="none" fill-opacity="1" stroke-miterlimit="4" fill-rule="nonzero" stroke-dasharray="none" stroke-opacity="1" stroke-linecap="butt" d="M43.805,21.75C43.809,10.529,35.39,1.093,24.242,-0.177C13.093,-1.448,2.767,5.852,0.246,16.785C-2.276,27.719,3.811,38.803,14.39,42.543L13.403,41.798L20.079,51.185L21.75,53.535L23.421,51.184L30.09,41.797L29.103,42.542C37.912,39.423,43.801,31.095,43.805,21.75ZM39.704,21.748C39.701,29.356,34.906,36.138,27.734,38.677L27.123,38.894L26.747,39.422L20.078,48.809L23.42,48.808L16.744,39.422L16.369,38.893L15.757,38.677C7.144,35.632,2.189,26.608,4.241,17.707C6.294,8.805,14.701,2.862,23.777,3.897C32.853,4.931,39.707,12.614,39.704,21.749Z"/>
</g>
  <g id="Medium-S" transform="matrix(1.0,0.0,0.0,1.0,1725.618689819336,633.1849448242187)">  <path fill-opacity="1" stroke-opacity="1" stroke-width="1.8029999732971191px" fill="#9b247f" stroke-linecap="butt" stroke-dasharray="none" stroke-linejoin="miter" xmlns:xlink="http://www.w3.org/1999/xlink" stroke="none" version="1.1" fill-rule="nonzero" stroke-miterlimit="4" d="M43.47,21.75C43.474,10.699,35.183,1.406,24.204,0.155C13.224,-1.096,3.054,6.092,0.571,16.86C-1.912,27.628,4.083,38.545,14.502,42.228L13.675,41.604L20.351,50.991L21.75,52.958L23.148,50.99L29.818,41.604L28.992,42.227C37.667,39.155,43.466,30.953,43.47,21.75ZM40.039,21.749C40.035,29.498,35.151,36.406,27.846,38.992L27.334,39.174L27.02,39.616L20.351,49.003L23.148,49.002L16.472,39.615L16.157,39.173L15.646,38.992C6.873,35.891,1.825,26.699,3.915,17.631C6.006,8.564,14.57,2.511,23.815,3.565C33.06,4.618,40.042,12.444,40.039,21.749Z"/>
</g>
  <g id="Regular-S" transform="matrix(1.0,0.0,0.0,1.0,1428.908689819336,633.1849448242187)">  <path stroke-width="1.8029999732971191px" fill-opacity="1" fill="#9b247f" stroke-dasharray="none" stroke-opacity="1" xmlns:xlink="http://www.w3.org/1999/xlink" stroke-linejoin="miter" stroke-miterlimit="4" stroke-linecap="butt" version="1.1" fill-rule="nonzero" stroke="none" d="M43.136,21.75C43.14,10.869,34.976,1.719,24.166,0.487C13.355,-0.745,3.342,6.333,0.897,16.935C-1.548,27.538,4.355,38.286,14.613,41.912L13.948,41.411L20.623,50.797L21.75,52.381L22.876,50.797L29.545,41.41L28.88,41.912C37.421,38.888,43.132,30.811,43.136,21.75ZM40.373,21.749C40.37,29.64,35.396,36.673,27.958,39.308L27.546,39.453L27.293,39.81L20.623,49.196L22.875,49.196L16.2,39.809L15.946,39.453L15.534,39.307C6.601,36.149,1.461,26.789,3.59,17.556C5.719,8.324,14.439,2.159,23.853,3.232C33.267,4.305,40.376,12.274,40.373,21.749Z"/>
</g>
  <g id="Light-S" transform="matrix(1.0,0.0,0.0,1.0,1132.198689819336,633.1849448242187)">  <path stroke-dasharray="none" stroke="none" fill="#9b247f" stroke-miterlimit="4" fill-opacity="1" stroke-linejoin="miter" stroke-linecap="butt" fill-rule="nonzero" stroke-opacity="1" stroke-width="1.8029999732971191px" xmlns:xlink="http://www.w3.org/1999/xlink" version="1.1" d="M42.906,21.75C42.91,10.986,34.834,1.935,24.14,0.716C13.446,-0.503,3.54,6.499,1.122,16.987C-1.297,27.475,4.542,38.108,14.69,41.695L14.135,41.277L20.811,50.664L21.75,51.984L22.688,50.663L29.357,41.277L28.803,41.695C37.253,38.703,42.902,30.714,42.906,21.75ZM40.603,21.749C40.6,29.738,35.565,36.858,28.034,39.525L27.691,39.646L27.48,39.943L20.811,49.33L22.688,49.329L16.012,39.943L15.801,39.646L15.457,39.524C6.414,36.327,1.21,26.852,3.365,17.505C5.521,8.158,14.348,1.917,23.879,3.004C33.409,4.09,40.607,12.157,40.603,21.749Z"/>
</g>
  <g id="Thin-S" transform="matrix(1.0,0.0,0.0,1.0,835.488689819336,633.1849448242187)">  <path stroke-miterlimit="4" xmlns:xlink="http://www.w3.org/1999/xlink" stroke-width="1.8029999732971191px" stroke-opacity="1" version="1.1" fill="#9b247f" fill-opacity="1" stroke="none" stroke-dasharray="none" stroke-linecap="butt" fill-rule="nonzero" stroke-linejoin="miter" d="M42.676,21.75C42.679,11.103,34.691,2.15,24.114,0.945C13.536,-0.261,3.738,6.665,1.346,17.039C-1.046,27.413,4.729,37.93,14.767,41.478L14.323,41.144L20.999,50.53L21.75,51.586L22.5,50.53L29.17,41.143L28.726,41.478C37.084,38.519,42.672,30.616,42.676,21.75ZM40.834,21.749C40.83,29.835,35.734,37.042,28.111,39.742L27.837,39.839L27.668,40.076L20.998,49.463L22.5,49.463L15.824,40.076L15.655,39.839L15.381,39.741C6.226,36.505,0.959,26.914,3.141,17.453C5.323,7.992,14.258,1.675,23.905,2.775C33.552,3.874,40.837,12.04,40.834,21.749Z"/>
</g>
  <g id="Ultralight-S" transform="matrix(1.0,0.0,0.0,1.0,538.7786898193359,633.1849448242187)">  <path version="1.1" fill-opacity="1" stroke-miterlimit="4" stroke-linecap="butt" fill="#9b247f" fill-rule="nonzero" xmlns:xlink="http://www.w3.org/1999/xlink" stroke-linejoin="miter" stroke-dasharray="none" stroke-width="1.8029999732971191px" stroke="none" stroke-opacity="1" d="M42.445,21.75C42.449,11.22,34.549,2.366,24.088,1.173C13.626,-0.019,3.936,6.831,1.57,17.091C-0.796,27.351,4.916,37.752,14.843,41.261L14.511,41.01L21.186,50.397L21.75,51.189L22.312,50.397L28.982,41.01L28.649,41.261C36.915,38.334,42.441,30.518,42.445,21.75ZM41.064,21.749C41.06,29.933,35.903,37.227,28.188,39.959L27.982,40.032L27.856,40.21L21.186,49.596L22.312,49.596L15.637,40.209L15.51,40.031L15.304,39.959C6.039,36.684,0.709,26.976,2.917,17.401C5.125,7.826,14.168,1.433,23.931,2.546C33.694,3.659,41.067,11.923,41.064,21.749Z"/>
</g>
 </g>
</svg>
