<svg width="43" height="32" viewBox="0 0 43 32" xmlns="http://www.w3.org/2000/svg">
    <path d="m27.354 1.037.391.156.112-.054c.268-.131.554-.224.85-.273.257-.048.519-.077.78-.087.487-.011.974.017 1.456.083a16.974 16.974 0 0 1 2.051.4l.674.166.33.093.33.112.656.22c.862.327 1.7.713 2.51 1.156.806.45 1.574.964 2.297 1.538.359.281.717.587 1.047.904l.248.242c.078.083.16.165.24.252.079.086.158.173.236.266l.047.058.06.072a6.465 6.465 0 0 1 .828 1.347c.206.424.353.874.438 1.337.087.46.087.933 0 1.394-.086.447-.26.872-.512 1.25a3.464 3.464 0 0 0 .262-1.92 4.04 4.04 0 0 0-.147-.623 5.858 5.858 0 0 0-1.313-2.144l-.11-.108-.12-.115a6.821 6.821 0 0 0-.232-.209l-.244-.209-.254-.202a25.24 25.24 0 0 0-1.072-.749 18.486 18.486 0 0 0-2.27-1.246c-.78-.352-1.58-.657-2.395-.915a22.706 22.706 0 0 0-2.51-.595c-.408-.083-.83-.126-1.247-.183a9.668 9.668 0 0 0-.717-.04h-.487a4.4 4.4 0 0 0-.456.05c.732.253 1.42.617 2.04 1.081a9.044 9.044 0 0 1 2.374 2.767c.293.52.547 1.06.76 1.617.21.554.384 1.123.52 1.7.028.126.053.249.075.36a.514.514 0 0 1 0 .073l.071.41.14.822.298 1.664.56 3.285a.514.514 0 0 1 0 .072c.089.522.175 1.045.268 1.567l.079.404v.036l.072.36c.042.227.117.446.222.652a.688.688 0 0 0 .143.19c.031.032.072.05.115.055a.357.357 0 0 0 .204-.065c.094-.054.18-.12.255-.198.17-.178.314-.378.43-.595.124-.232.233-.473.326-.72.104-.256.205-.522.323-.782.121-.26.259-.51.412-.753.31-.469.67-.901 1.076-1.29-.158.231-.316.462-.46.7-.067.115-.139.234-.2.36l-.093.184-.086.183a9.11 9.11 0 0 0-.491 1.564 6.62 6.62 0 0 1-.251.832 3.247 3.247 0 0 1-.423.803 2.009 2.009 0 0 1-.359.36c-.163.127-.355.21-.56.242a1.007 1.007 0 0 1-.67-.152 1.538 1.538 0 0 1-.433-.417l-.043-.065c-.154.389-.327.77-.51 1.142a19.643 19.643 0 0 1-1.39 2.38 21.008 21.008 0 0 1-1.693 2.162 24.577 24.577 0 0 0 1.485-2.295c.448-.785.84-1.601 1.176-2.442.222-.562.423-1.131.588-1.707v-.058a13.08 13.08 0 0 1-.126-.414l-.115-.41c-.143-.545-.29-1.082-.423-1.626l-.398-1.624-.358-1.628-.717-3.242c-.269-1-.67-1.96-1.19-2.853a7.662 7.662 0 0 0-1.958-2.241 6.17 6.17 0 0 0-1.258-.72 6.387 6.387 0 0 0-1.398-.415l-.56-.097-.165-.522a.405.405 0 0 1 0-.076v-.303c0-.101.01-.202.029-.302a14.33 14.33 0 0 0-10.088.151c.003.064.003.127 0 .191v.295l-.1.411-.488.065-.32.05-.157.026-.158.04c-.104.024-.211.042-.315.075l-.305.094c-.41.137-.805.316-1.18.533-.382.22-.742.477-1.075.767l-.237.216-.236.238a7.481 7.481 0 0 0-.449.504c-.287.353-.55.725-.788 1.113a12.694 12.694 0 0 0-1.172 2.518 7.64 7.64 0 0 0-.205.674c-.057.227-.133.457-.2.684l.075-.72c.025-.238.057-.476.096-.72.069-.393.158-.782.27-1.164.02-.08.046-.159.071-.238.149-.45.326-.89.53-1.318a9.79 9.79 0 0 1 .718-1.286 7.83 7.83 0 0 1 2.054-2.162 7.31 7.31 0 0 1 1.333-.72l.359-.144c.111-.04.226-.072.34-.108a1.594 1.594 0 0 0-.33-.12 3.476 3.476 0 0 0-.462-.068 6.687 6.687 0 0 0-.889 0h-.15c-.359.032-.717.082-1.076.152-.358.068-.717.147-1.075.234-.359.086-.717.194-1.076.292l-.53.172c-.176.062-.36.109-.531.18-.359.134-.7.256-1.036.411-.169.08-.34.148-.51.227l-.501.245c-.165.08-.33.17-.491.26l-.305.144-.122.064-.118.072-.477.289-.463.295a17.74 17.74 0 0 0-.896.648c-.147.112-.287.231-.427.36-.14.13-.276.238-.405.36-.066.058-.13.12-.19.185l-.093.09-.1.104c-.108.112-.215.242-.323.36a4.961 4.961 0 0 0-.914 1.762c-.083.296-.12.604-.108.911.013.302.077.6.19.88.025.071.065.136.097.208.016.04.036.079.057.115l.069.127.132.248.14.245c.189.324.382.645.58.962.205.31.424.609.653.908.23.299.477.59.717.907.26.323.5.663.717 1.016.226.366.412.755.556 1.16.147.4.247.796.359 1.156.082.336.208.66.376.962.078.133.173.254.283.36a.638.638 0 0 0 .262.173c.03.01.06.01.09 0a.423.423 0 0 0 .129-.082 1.08 1.08 0 0 0 .175-.224l.086-.151c.078-.161.145-.327.201-.497.057-.184.115-.36.169-.555.114-.36.218-.75.33-1.124.042-.144.082-.292.125-.436.176-.609.358-1.214.534-1.8a84.966 84.966 0 0 1-.29 2.33l-.076.511a16.18 16.18 0 0 0 .993 3.087c.355.806.762 1.587 1.22 2.338a22.111 22.111 0 0 0 3.29 4.147c.628.627 1.299 1.21 2.008 1.743.7.544 1.447 1.026 2.23 1.44.777.414 1.602.727 2.456.934l.158.036.079.022.096.01.323.054.161.026h.162l.33.028a7.6 7.6 0 0 0 1.308-.06c.885-.129 1.75-.37 2.574-.721.416-.173.825-.36 1.226-.577.402-.216.793-.44 1.18-.68-.359.28-.717.547-1.115.796-.398.248-.778.479-1.183.695-.823.426-1.696.745-2.6.947a7.03 7.03 0 0 1-1.401.166h-.724l-.359-.036h-.176l-.172-.029a11.236 11.236 0 0 1-2.689-.825 16.004 16.004 0 0 1-2.445-1.376 19.194 19.194 0 0 1-2.194-1.733 22.422 22.422 0 0 1-1.95-2.013 21.1 21.1 0 0 1-1.689-2.248c-.518-.8-.98-1.636-1.383-2.5-.176-.36-.337-.746-.484-1.127-.078.076-.166.14-.262.19a.921.921 0 0 1-.473.112 1.15 1.15 0 0 1-.441-.104 1.487 1.487 0 0 1-.337-.21 2.473 2.473 0 0 1-.484-.507 4.525 4.525 0 0 1-.599-1.16c-.14-.36-.265-.72-.416-1.056a5.45 5.45 0 0 0-.538-.925 8.832 8.832 0 0 0-.68-.843 23.316 23.316 0 0 1-1.56-1.823 18.608 18.608 0 0 1-.692-1.009l-.162-.255-.157-.26-.08-.13c-.024-.043-.05-.082-.078-.14-.029-.058-.115-.205-.161-.317a4.234 4.234 0 0 1-.359-1.394c-.032-.474.006-.95.115-1.412.055-.222.122-.441.2-.656a7.36 7.36 0 0 1 .273-.62 7.5 7.5 0 0 1 .717-1.12c.134-.18.28-.352.434-.515l.1-.108.09-.1c.075-.08.154-.152.23-.224.15-.148.308-.281.465-.422.158-.14.312-.266.477-.392A16.368 16.368 0 0 1 5.145 3.34l.133-.079.132-.068.27-.148c.178-.094.358-.195.544-.277l.552-.26c.183-.083.359-.155.56-.234.358-.166.76-.292 1.14-.429.19-.072.387-.122.58-.183l.585-.173c.394-.094.785-.191 1.18-.274.394-.083.791-.155 1.193-.209.402-.054.814-.097 1.233-.115.43-.025.863-.01 1.29.043.231.032.46.081.682.148.143.043.282.098.416.162.608-.26 1.232-.48 1.868-.66a15.682 15.682 0 0 1 9.85.453zm-5.969 14.87h1.56a11.025 11.025 0 0 1 1.58.04 1.84 1.84 0 0 1 1.564 1.207c.078.219.106.453.082.684-.03.25-.1.495-.211.72-.359.79-1.187 1.345-1.825 1.906l-.473.408-.48.417.193-.255.193-.253.388-.504c.566-.72 1.588-1.581 1.434-2.622a1.198 1.198 0 0 0-1.298-.995h-4.585a1.48 1.48 0 0 0-.986.36.976.976 0 0 0-.212 1.042c.172.481.462.91.843 1.25l2.868 3.047.093.101.115.119c.016.76.192 1.507.516 2.194a3.298 3.298 0 0 0 2.95 1.938h.119a4.528 4.528 0 0 0 2.233-.515 4.004 4.004 0 0 0 1.61-1.884c.228-.509.4-1.042.509-1.589.016.142.023.286.022.429 0 .144 0 .288-.018.432-.026.29-.076.576-.151.857a4.39 4.39 0 0 1-.77 1.603c-1.076 1.362-2.962 1.733-4.565 1.3a4.15 4.15 0 0 1-2.638-2.25 5.566 5.566 0 0 1-.197-.462 5.34 5.34 0 0 1-.33.72c-.15.27-.325.525-.524.76-.104.116-.211.231-.326.336a3.646 3.646 0 0 1-.756.547c-.138.074-.279.14-.423.199a4.542 4.542 0 0 1-.441.15h-.112l-.11.026-.112.025-.115.018c-.599.101-1.21.101-1.81 0a3.677 3.677 0 0 1-2.796-2.161 5.453 5.453 0 0 1-.441-1.686c0-.144-.022-.288-.025-.429a4.257 4.257 0 0 1 0-.428 5.7 5.7 0 0 0 .193.821c.07.272.157.54.262.8.115.25.249.491.401.72a3.913 3.913 0 0 0 3.27 1.682c.264-.004.528-.03.789-.075h.093l.108-.036.093-.022h.093c.122-.03.242-.07.358-.119.123-.046.242-.099.359-.158.107-.061.211-.126.315-.198.1-.074.197-.153.287-.238.095-.083.182-.173.262-.27a4.18 4.18 0 0 0 .753-1.337 6.147 6.147 0 0 0 .272-1.152l.022-.195v-.029l-1.99-2.104c-.358-.4-.756-.8-1.122-1.21a3.025 3.025 0 0 1-.803-1.33 1.776 1.776 0 0 1 .269-1.58 2.07 2.07 0 0 1 1.473-.771c.692-.058 1.41 0 2.101 0zm-4.743 8.055a.325.325 0 0 1 .204.083c.055.048.091.115.1.187a.271.271 0 0 1-.05.191.274.274 0 0 0-.114-.295.25.25 0 0 0-.14-.04.261.261 0 0 0-.133.05.249.249 0 0 0-.079.12.445.445 0 0 0 0 .072.163.163 0 0 0 0 .072.28.28 0 0 0 .27.183.264.264 0 0 1-.198 0 .29.29 0 0 1-.158-.136.333.333 0 0 1-.035-.22.36.36 0 0 1 .118-.195.357.357 0 0 1 .215-.072zm10.372-.007a.31.31 0 0 1 .305.27.275.275 0 0 1-.05.202.274.274 0 0 0-.115-.299.164.164 0 0 0-.069-.029.228.228 0 0 0-.071 0 .26.26 0 0 0-.126.036.267.267 0 0 0-.079.12.26.26 0 0 0 0 .147c.041.108.146.18.262.176a.264.264 0 0 1-.197 0 .316.316 0 0 1-.158-.14.311.311 0 0 1-.036-.22.335.335 0 0 1 .334-.263zM25.2 22.741a.325.325 0 0 1 .204.083c.054.049.09.115.1.187a.268.268 0 0 1-.05.188.27.27 0 0 0-.183-.328H25.2a.261.261 0 0 0-.133.05.231.231 0 0 0-.072.263c.04.11.145.183.262.18a.25.25 0 0 1-.197 0 .29.29 0 0 1-.158-.137.311.311 0 0 1-.036-.22.36.36 0 0 1 .119-.194.357.357 0 0 1 .215-.072zm-6.726-.007c.153 0 .281.114.301.266a.25.25 0 0 1-.046.191.282.282 0 0 0-.115-.295.221.221 0 0 0-.14-.036.197.197 0 0 0-.133.05.238.238 0 0 0-.079.116.257.257 0 0 0 0 .072.188.188 0 0 0 0 .075c.04.115.15.19.27.184a.264.264 0 0 1-.198 0 .302.302 0 0 1-.158-.14.311.311 0 0 1-.035-.22.334.334 0 0 1 .333-.263zm8.533-.695a.325.325 0 0 1 .204.083.307.307 0 0 1 .097.187.25.25 0 0 1-.04.187.282.282 0 0 0-.114-.295.236.236 0 0 0-.069-.033h-.071a.24.24 0 0 0-.133.05.249.249 0 0 0-.079.267c.041.11.146.18.262.177a.25.25 0 0 1-.197 0 .298.298 0 0 1-.162-.137.33.33 0 0 1 .301-.486zm-10.365-.004a.325.325 0 0 1 .204.083.296.296 0 0 1 .1.187.271.271 0 0 1-.05.191.282.282 0 0 0-.114-.299.246.246 0 0 0-.14-.036.215.215 0 0 0-.133.05.249.249 0 0 0-.079.12.235.235 0 0 0 0 .071.163.163 0 0 0 0 .073.28.28 0 0 0 .27.183.264.264 0 0 1-.198 0 .318.318 0 0 1-.194-.357.36.36 0 0 1 .119-.194.336.336 0 0 1 .215-.072zM15.004 9.067c.9 0 1.63.734 1.63 1.639s-.73 1.639-1.63 1.639c-.901 0-1.632-.734-1.632-1.64 0-.904.73-1.638 1.632-1.638zm13.62-.004c.9 0 1.63.734 1.63 1.64 0 .905-.73 1.638-1.63 1.638-.901 0-1.632-.733-1.632-1.639 0-.905.73-1.639 1.631-1.639z" fill="#3D343A" fill-rule="evenodd" opacity=".4"/>
</svg>
