<?xml version="1.0" encoding="UTF-8"?>
<!--Generator: CustomSymbols by @serious_bret-->
<!DOCTYPE svg
PUBLIC "-//W3C//DTD SVG 1.1//EN"
       "http://www.w3.org/Graphics/SVG/1.1/DTD/svg11.dtd">
<svg version="1.1" xmlns="http://www.w3.org/2000/svg" xmlns:xlink="http://www.w3.org/1999/xlink" width="3300" height="2200">
 <g id="Notes">
  <rect height="2200" id="artboard" style="fill:white;opacity:1" width="3300" x="0" y="0"/>
  <line id="" style="fill:none;stroke:black;opacity:1;stroke-width:0.5;" x1="263" x2="3036" y1="292" y2="292"/>
  <text id="reftext1" style="stroke:none;fill:black;font-family:-apple-system,&quot;SF Pro Display&quot;,&quot;SF Pro Text&quot;,Helvetica,sans-serif;font-weight:bold;" transform="matrix(1 0 0 1 263 322)">Weight/Scale Variations</text>
  <text id="reftext2" style="stroke:none;fill:black;font-family:-apple-system,&quot;SF Pro Display&quot;,&quot;SF Pro Text&quot;,Helvetica,sans-serif;text-anchor:middle;" transform="matrix(1 0 0 1 559.711 322)">Ultralight</text>
  <text style="stroke:none;fill:black;font-family:-apple-system,&quot;SF Pro Display&quot;,&quot;SF Pro Text&quot;,Helvetica,sans-serif;text-anchor:middle;" transform="matrix(1 0 0 1 856.422 322)">Thin</text>
  <text style="stroke:none;fill:black;font-family:-apple-system,&quot;SF Pro Display&quot;,&quot;SF Pro Text&quot;,Helvetica,sans-serif;text-anchor:middle;" transform="matrix(1 0 0 1 1153.13 322)">Light</text>
  <text style="stroke:none;fill:black;font-family:-apple-system,&quot;SF Pro Display&quot;,&quot;SF Pro Text&quot;,Helvetica,sans-serif;text-anchor:middle;" transform="matrix(1 0 0 1 1449.84 322)">Regular</text>
  <text style="stroke:none;fill:black;font-family:-apple-system,&quot;SF Pro Display&quot;,&quot;SF Pro Text&quot;,Helvetica,sans-serif;text-anchor:middle;" transform="matrix(1 0 0 1 1746.56 322)">Medium</text>
  <text style="stroke:none;fill:black;font-family:-apple-system,&quot;SF Pro Display&quot;,&quot;SF Pro Text&quot;,Helvetica,sans-serif;text-anchor:middle;" transform="matrix(1 0 0 1 2043.27 322)">Semibold</text>
  <text style="stroke:none;fill:black;font-family:-apple-system,&quot;SF Pro Display&quot;,&quot;SF Pro Text&quot;,Helvetica,sans-serif;text-anchor:middle;" transform="matrix(1 0 0 1 2339.98 322)">Bold</text>
  <text style="stroke:none;fill:black;font-family:-apple-system,&quot;SF Pro Display&quot;,&quot;SF Pro Text&quot;,Helvetica,sans-serif;text-anchor:middle;" transform="matrix(1 0 0 1 2636.69 322)">Heavy</text>
  <text style="stroke:none;fill:black;font-family:-apple-system,&quot;SF Pro Display&quot;,&quot;SF Pro Text&quot;,Helvetica,sans-serif;text-anchor:middle;" transform="matrix(1 0 0 1 2933.4 322)">Black</text>
  <line id="" style="fill:none;stroke:black;opacity:1;stroke-width:0.5;" x1="263" x2="3036" y1="1903" y2="1903"/>
  <g id="" transform="matrix(1 0 0 1 263 1933)">
   <path d="M9.24805 0.830078C13.5547 0.830078 17.1387-2.74414 17.1387-7.05078C17.1387-11.3574 13.5449-14.9316 9.23828-14.9316C4.94141-14.9316 1.36719-11.3574 1.36719-7.05078C1.36719-2.74414 4.95117 0.830078 9.24805 0.830078ZM9.24805-0.654297C5.70312-0.654297 2.87109-3.49609 2.87109-7.05078C2.87109-10.6055 5.69336-13.4473 9.23828-13.4473C12.793-13.4473 15.6348-10.6055 15.6445-7.05078C15.6543-3.49609 12.8027-0.654297 9.24805-0.654297ZM6.39648-6.31836L8.50586-6.31836L8.50586-4.19922C8.50586-3.75977 8.79883-3.45703 9.22852-3.45703C9.67773-3.45703 9.9707-3.75977 9.9707-4.19922L9.9707-6.31836L12.0996-6.31836C12.5391-6.31836 12.8418-6.61133 12.8418-7.04102C12.8418-7.48047 12.5391-7.7832 12.0996-7.7832L9.9707-7.7832L9.9707-9.89258C9.9707-10.3418 9.67773-10.6445 9.22852-10.6445C8.79883-10.6445 8.50586-10.3418 8.50586-9.89258L8.50586-7.7832L6.39648-7.7832C5.94727-7.7832 5.64453-7.48047 5.64453-7.04102C5.64453-6.61133 5.94727-6.31836 6.39648-6.31836Z"/>
  </g>
  <g id="" transform="matrix(1 0 0 1 281.506 1933)">
   <path d="M11.709 2.91016C17.1582 2.91016 21.6699-1.61133 21.6699-7.05078C21.6699-12.5 17.1484-17.0117 11.6992-17.0117C6.25977-17.0117 1.74805-12.5 1.74805-7.05078C1.74805-1.61133 6.26953 2.91016 11.709 2.91016ZM11.709 1.25C7.09961 1.25 3.41797-2.44141 3.41797-7.05078C3.41797-11.6602 7.08984-15.3516 11.6992-15.3516C16.3086-15.3516 20-11.6602 20.0098-7.05078C20.0195-2.44141 16.3184 1.25 11.709 1.25ZM7.98828-6.23047L10.8789-6.23047L10.8789-3.32031C10.8789-2.83203 11.2109-2.5 11.6895-2.5C12.1777-2.5 12.5195-2.83203 12.5195-3.32031L12.5195-6.23047L15.4297-6.23047C15.918-6.23047 16.25-6.5625 16.25-7.04102C16.25-7.5293 15.918-7.87109 15.4297-7.87109L12.5195-7.87109L12.5195-10.7617C12.5195-11.2695 12.1777-11.6016 11.6895-11.6016C11.2109-11.6016 10.8789-11.2598 10.8789-10.7617L10.8789-7.87109L7.98828-7.87109C7.48047-7.87109 7.14844-7.5293 7.14844-7.04102C7.14844-6.5625 7.49023-6.23047 7.98828-6.23047Z"/>
  </g>
  <g id="" transform="matrix(1 0 0 1 304.924 1933)">
   <path d="M14.9707 5.66406C21.9336 5.66406 27.6953-0.0976562 27.6953-7.05078C27.6953-14.0137 21.9238-19.7754 14.9609-19.7754C8.00781-19.7754 2.25586-14.0137 2.25586-7.05078C2.25586-0.0976562 8.01758 5.66406 14.9707 5.66406ZM14.9707 3.84766C8.93555 3.84766 4.08203-1.01562 4.08203-7.05078C4.08203-13.0957 8.92578-17.9492 14.9609-17.9492C21.0059-17.9492 25.8594-13.0957 25.8691-7.05078C25.8789-1.01562 21.0156 3.84766 14.9707 3.84766ZM10.0586-6.14258L14.0625-6.14258L14.0625-2.12891C14.0625-1.5918 14.4336-1.2207 14.9512-1.2207C15.4883-1.2207 15.8594-1.5918 15.8594-2.12891L15.8594-6.14258L19.8828-6.14258C20.4102-6.14258 20.791-6.51367 20.791-7.03125C20.791-7.56836 20.4199-7.94922 19.8828-7.94922L15.8594-7.94922L15.8594-11.9531C15.8594-12.5098 15.4883-12.8809 14.9512-12.8809C14.4336-12.8809 14.0625-12.5 14.0625-11.9531L14.0625-7.94922L10.0586-7.94922C9.50195-7.94922 9.13086-7.56836 9.13086-7.03125C9.13086-6.51367 9.51172-6.14258 10.0586-6.14258Z"/>
  </g>
  <text style="stroke:none;fill:black;font-family:-apple-system,&quot;SF Pro Display&quot;,&quot;SF Pro Text&quot;,Helvetica,sans-serif;font-weight:bold;" transform="matrix(1 0 0 1 263 1953)">Design Variations</text>
  <text style="stroke:none;fill:black;font-family:-apple-system,&quot;SF Pro Display&quot;,&quot;SF Pro Text&quot;,Helvetica,sans-serif;" transform="matrix(1 0 0 1 263 1971)">Symbols are supported in up to nine weights and three scales.</text>
  <text style="stroke:none;fill:black;font-family:-apple-system,&quot;SF Pro Display&quot;,&quot;SF Pro Text&quot;,Helvetica,sans-serif;" transform="matrix(1 0 0 1 263 1989)">For optimal layout with text and other symbols, vertically align</text>
  <text style="stroke:none;fill:black;font-family:-apple-system,&quot;SF Pro Display&quot;,&quot;SF Pro Text&quot;,Helvetica,sans-serif;" transform="matrix(1 0 0 1 263 2007)">symbols with the adjacent text.</text>
  <line id="" style="fill:none;stroke:#00AEEF;stroke-width:0.5;opacity:1.0;" x1="776" x2="776" y1="1919" y2="1933"/>
  <g id="" transform="matrix(1 0 0 1 776 1933)">
   <path d="M3.31055 0.126953C3.82812 0.126953 4.08203-0.0683594 4.26758-0.605469L5.52734-4.0625L11.2891-4.0625L12.5488-0.605469C12.7344-0.0683594 12.9883 0.126953 13.4961 0.126953C14.0137 0.126953 14.3457-0.185547 14.3457-0.673828C14.3457-0.839844 14.3164-0.986328 14.2383-1.20117L9.6582-13.3887C9.43359-13.9941 9.0332-14.2871 8.4082-14.2871C7.80273-14.2871 7.39258-13.9941 7.17773-13.3984L2.59766-1.19141C2.51953-0.976562 2.49023-0.830078 2.49023-0.664062C2.49023-0.175781 2.80273 0.126953 3.31055 0.126953ZM6.00586-5.53711L8.37891-12.1094L8.42773-12.1094L10.8008-5.53711Z"/>
  </g>
  <line id="" style="fill:none;stroke:#00AEEF;stroke-width:0.5;opacity:1.0;" x1="792.836" x2="792.836" y1="1919" y2="1933"/>
  <text style="stroke:none;fill:black;font-family:-apple-system,&quot;SF Pro Display&quot;,&quot;SF Pro Text&quot;,Helvetica,sans-serif;font-weight:bold;" transform="matrix(1 0 0 1 776 1953)">Margins</text>
  <text style="stroke:none;fill:black;font-family:-apple-system,&quot;SF Pro Display&quot;,&quot;SF Pro Text&quot;,Helvetica,sans-serif;" transform="matrix(1 0 0 1 776 1971)">Leading and trailing margins on the left and right side of each symbol</text>
  <text style="stroke:none;fill:black;font-family:-apple-system,&quot;SF Pro Display&quot;,&quot;SF Pro Text&quot;,Helvetica,sans-serif;" transform="matrix(1 0 0 1 776 1989)">can be adjusted by modifying the x-location of the margin guidelines.</text>
  <text style="stroke:none;fill:black;font-family:-apple-system,&quot;SF Pro Display&quot;,&quot;SF Pro Text&quot;,Helvetica,sans-serif;" transform="matrix(1 0 0 1 776 2007)">Modifications are automatically applied proportionally to all</text>
  <text style="stroke:none;fill:black;font-family:-apple-system,&quot;SF Pro Display&quot;,&quot;SF Pro Text&quot;,Helvetica,sans-serif;" transform="matrix(1 0 0 1 776 2025)">scales and weights.</text>
  <g id="" transform="matrix(1 0 0 1 1289 1933)">
   <path d="M2.8418 1.86523L4.54102 3.57422C5.40039 4.44336 6.38672 4.38477 7.31445 3.35938L17.4902-7.85156C17.7539-7.76367 18.0273-7.7832 18.3398-7.8418L19.4043-8.03711L20.0684-7.36328L20.0293-6.80664C19.9902-6.30859 20.1172-5.92773 20.6055-5.44922L21.3672-4.70703C21.8457-4.22852 22.4609-4.19922 22.9297-4.66797L25.8398-7.58789C26.3086-8.05664 26.2891-8.65234 25.8105-9.13086L25.0391-9.89258C24.5605-10.3711 24.1895-10.5273 23.7109-10.4883L23.1348-10.4395L22.4902-11.0742L22.7344-12.1973C22.8613-12.7637 22.7051-13.2031 22.1191-13.7891L19.9219-15.9766C16.582-19.2969 12.1484-19.2188 9.25781-16.3281C8.83789-15.918 8.80859-15.3418 9.04297-14.9512C9.27734-14.5898 9.73633-14.3555 10.3809-14.5215C11.8457-14.8633 13.3691-14.9219 14.7949-13.9844L14.209-12.5293C14.0137-12.0508 13.9844-11.6504 14.1113-11.2891L3.04688-0.898438C2.06055 0.0195312 1.98242 0.996094 2.8418 1.86523ZM10.752-15.957C13.1836-17.7344 16.4746-17.4316 18.7012-15.2051L21.1328-12.793C21.3672-12.5586 21.4062-12.373 21.3379-12.0312L21.0156-10.5469L22.5195-9.0625L23.5059-9.12109C23.7598-9.13086 23.8379-9.11133 24.0332-8.91602L24.6094-8.33984L22.168-5.89844L21.5918-6.47461C21.3965-6.66992 21.3672-6.74805 21.377-7.01172L21.4453-7.98828L19.9512-9.47266L18.4277-9.21875C18.1055-9.15039 17.959-9.17969 17.7148-9.41406L15.7129-11.416C15.459-11.6504 15.4297-11.8164 15.5859-12.1875L16.4648-14.2773C14.9023-15.7324 12.8711-16.3574 10.8398-15.7617C10.6836-15.7227 10.625-15.8496 10.752-15.957ZM5.27344 2.30469L4.10156 1.14258C3.63281 0.683594 3.74023 0.341797 4.14062-0.0195312L14.9512-10.1953L16.416-8.71094L6.42578 2.27539C6.07422 2.67578 5.74219 2.77344 5.27344 2.30469Z"/>
  </g>
  <text style="stroke:none;fill:black;font-family:-apple-system,&quot;SF Pro Display&quot;,&quot;SF Pro Text&quot;,Helvetica,sans-serif;font-weight:bold;" transform="matrix(1 0 0 1 1289 1953)">Exporting</text>
  <text style="stroke:none;fill:black;font-family:-apple-system,&quot;SF Pro Display&quot;,&quot;SF Pro Text&quot;,Helvetica,sans-serif;" transform="matrix(1 0 0 1 1289 1971)">Symbols should be outlined when exporting to ensure the</text>
  <text style="stroke:none;fill:black;font-family:-apple-system,&quot;SF Pro Display&quot;,&quot;SF Pro Text&quot;,Helvetica,sans-serif;" transform="matrix(1 0 0 1 1289 1989)">design is preserved when submitting to Xcode.</text>
  <text id="template-version" style="stroke:none;fill:black;font-family:-apple-system,&quot;SF Pro Display&quot;,&quot;SF Pro Text&quot;,Helvetica,sans-serif;text-anchor:end;" transform="matrix(1 0 0 1 3036 1933)">Template v.2.0</text>
  <text style="stroke:none;fill:black;font-family:-apple-system,&quot;SF Pro Display&quot;,&quot;SF Pro Text&quot;,Helvetica,sans-serif;text-anchor:end;" transform="matrix(1 0 0 1 3036 1951)">Requires Xcode 12 or greater</text>
  <text style="stroke:none;fill:black;font-family:-apple-system,&quot;SF Pro Display&quot;,&quot;SF Pro Text&quot;,Helvetica,sans-serif;" transform="matrix(1 0 0 1 263 726)">Small</text>
  <text style="stroke:none;fill:black;font-family:-apple-system,&quot;SF Pro Display&quot;,&quot;SF Pro Text&quot;,Helvetica,sans-serif;" transform="matrix(1 0 0 1 263 1156)">Medium</text>
  <text style="stroke:none;fill:black;font-family:-apple-system,&quot;SF Pro Display&quot;,&quot;SF Pro Text&quot;,Helvetica,sans-serif;" transform="matrix(1 0 0 1 263 1586)">Large</text>
 </g>
 <g id="Guides">
  <g id="H-reference" style="fill:#27AAE1;stroke:none;" transform="matrix(1 0 0 1 339 696)">
   <path d="M0.976562 0L3.66211 0L12.9883-24.4629L45.752-24.4629L55.127 0L57.7637 0L30.6152-70.459L28.125-70.459ZM29.3457-67.1387L29.4434-67.1387L44.873-26.709L13.8672-26.709Z"/>
  </g>
  <line id="Baseline-S" style="fill:none;stroke:#27AAE1;opacity:1;stroke-width:0.5;" x1="263" x2="3036" y1="696" y2="696"/>
  <line id="Capline-S" style="fill:none;stroke:#27AAE1;opacity:1;stroke-width:0.5;" x1="263" x2="3036" y1="625.541" y2="625.541"/>
  <g id="H-reference" style="fill:#27AAE1;stroke:none;" transform="matrix(1 0 0 1 339 1126)">
   <path d="M0.976562 0L3.66211 0L12.9883-24.4629L45.752-24.4629L55.127 0L57.7637 0L30.6152-70.459L28.125-70.459ZM29.3457-67.1387L29.4434-67.1387L44.873-26.709L13.8672-26.709Z"/>
  </g>
  <line id="Baseline-M" style="fill:none;stroke:#27AAE1;opacity:1;stroke-width:0.5;" x1="263" x2="3036" y1="1126" y2="1126"/>
  <line id="Capline-M" style="fill:none;stroke:#27AAE1;opacity:1;stroke-width:0.5;" x1="263" x2="3036" y1="1055.54" y2="1055.54"/>
  <g id="H-reference" style="fill:#27AAE1;stroke:none;" transform="matrix(1 0 0 1 339 1556)">
   <path d="M0.976562 0L3.66211 0L12.9883-24.4629L45.752-24.4629L55.127 0L57.7637 0L30.6152-70.459L28.125-70.459ZM29.3457-67.1387L29.4434-67.1387L44.873-26.709L13.8672-26.709Z"/>
  </g>
  <line id="Baseline-L" style="fill:none;stroke:#27AAE1;opacity:1;stroke-width:0.5;" x1="263" x2="3036" y1="1556" y2="1556"/>
  <line id="Capline-L" style="fill:none;stroke:#27AAE1;opacity:1;stroke-width:0.5;" x1="263" x2="3036" y1="1485.54" y2="1485.54"/>
  <line id="left-margin" x1="1414.2224014136902" x2="1414.2224014136902" y1="1030.79" y2="1150.12" style="fill:none;stroke:#00AEEF;stroke-width:0.5;opacity:1.0;"/>
  <line id="right-margin" x1="1488.0375985863095" x2="1488.0375985863095" y1="1030.79" y2="1150.12" style="fill:none;stroke:#00AEEF;stroke-width:0.5;opacity:1.0;"/>
 </g>
 <g id="Symbols">
  <g id="Black-L" transform="matrix(1.0,0.0,0.0,1.0,2887.0691978236605,1475.3233447265625)">  <path stroke-linejoin="miter" stroke="none" stroke-linecap="butt" fill-opacity="1" stroke-width="1px" stroke-dasharray="none" stroke-opacity="1" fill="#000000" fill-rule="nonzero" stroke-miterlimit="4" d="M94.789,25.203L94.533,23.918L94.204,22.632C94.204,22.416,94.075,22.195,94.014,21.975L93.824,21.308C93.785,21.203,93.751,21.096,93.724,20.988L93.607,20.598L93.369,19.949C92.74,18.219,91.949,16.552,91.006,14.971C86.255,6.839,77.974,1.394,68.624,0.255C66.785,0.016,64.928,-0.056,63.076,0.039C61.219,0.165,59.379,0.466,57.579,0.939C53.941,1.855,50.499,3.423,47.42,5.566C35.654,13.901,31.13,29.211,36.474,42.603L0,80.008L3.731,90.287L10.526,90.893L5.523,88.426L4.328,81.176L9.167,76.541L15.694,78.082L18.231,85.007L15.374,89.236L19.945,86.033L23.831,86.318L20.364,84.622L19.157,77.013L24.121,72.468L30.596,74.225L32.869,80.817L28.108,87.422L35.916,81.627L34.379,73.16L39.084,68.386L47.715,70.122L52.272,63.301L46.702,66.292L40.188,64.136L38.526,57.86L43.36,52.956L43.616,53.212L44.633,54.138C47.358,56.538,50.505,58.412,53.913,59.665L54.545,59.894L54.865,60.011L55.181,60.098C55.614,60.228,56.034,60.37,56.449,60.47L57.722,60.795L58.99,61.037C64.27,61.898,69.681,61.24,74.606,59.15C74.188,59.269,73.765,59.37,73.338,59.453C71.256,59.937,69.126,60.187,66.988,60.197C66.153,60.215,65.287,60.202,64.448,60.098C62.765,59.962,61.097,59.683,59.462,59.262C52.963,57.565,47.275,53.623,43.404,48.135C42.456,46.786,41.626,45.358,40.924,43.867C40.225,42.384,39.66,40.841,39.236,39.257C38.799,37.675,38.506,36.057,38.361,34.423C38.235,32.795,38.235,31.16,38.361,29.532C38.491,27.909,38.76,26.303,39.171,24.736C39.598,23.169,40.151,21.639,40.824,20.161C41.486,18.711,42.274,17.322,43.17,16.006C44.998,13.343,47.294,11.034,49.948,9.193C55.256,5.465,61.731,3.779,68.183,4.445C73.018,4.921,77.645,6.696,81.575,9.583L82.527,10.319L83.47,11.098L84.371,11.92C84.661,12.206,84.942,12.5,85.236,12.794C89.867,17.656,92.636,23.995,93.057,30.696C93.282,34.093,92.925,37.504,92.001,40.781C91.525,42.447,90.906,44.066,90.145,45.615L90.019,45.914L89.868,46.208L89.573,46.784L89.257,47.351L88.941,47.914L88.24,49.022C88.015,49.394,87.76,49.758,87.517,50.113L88.396,49.139C88.66,48.805,88.954,48.455,89.218,48.109L89.612,47.581C89.742,47.403,89.881,47.234,89.993,47.057L90.361,46.503L90.551,46.234L90.729,45.949C91.694,44.434,92.508,42.832,93.17,41.157C94.489,37.809,95.184,34.247,95.222,30.648C95.235,28.824,95.09,27.003,94.789,25.203ZM16.646,74.212L12.695,73.031L20.023,65.577L21.035,69.43L16.646,74.212ZM31.436,69.884L25.238,68.148L23.593,61.916L28.108,57.328L34.28,59.024L35.942,65.322L31.436,69.884ZM35.383,54.744L31.739,53.744L38.595,46.788C39.179,47.762,39.807,48.702,40.486,49.602L35.383,54.744ZM35.383,54.744"/>
</g>
  <g id="Heavy-L" transform="matrix(1.0,0.0,0.0,1.0,2590.3591978236605,1475.3233447265625)">  <path fill-rule="nonzero" fill="#000000" stroke="none" fill-opacity="1" stroke-dasharray="none" stroke-linejoin="miter" stroke-opacity="1" stroke-linecap="butt" stroke-width="1px" stroke-miterlimit="4" d="M94.789,25.203L94.533,23.918L94.204,22.632C94.204,22.416,94.075,22.195,94.014,21.975L93.824,21.308C93.785,21.203,93.751,21.096,93.724,20.988L93.607,20.598L93.369,19.949C92.74,18.219,91.949,16.552,91.006,14.971C86.255,6.839,77.974,1.394,68.624,0.255C66.785,0.016,64.928,-0.056,63.076,0.039C61.219,0.165,59.379,0.466,57.579,0.939C53.941,1.855,50.499,3.423,47.42,5.566C35.654,13.901,31.13,29.211,36.474,42.603L0,80.008L3.731,90.287L10.526,90.893L5.523,88.426L4.328,81.176L9.167,76.541L15.694,78.082L18.231,85.007L15.374,89.236L19.945,86.033L23.831,86.318L20.364,84.622L19.157,77.013L24.121,72.468L30.596,74.225L32.869,80.817L28.108,87.422L35.916,81.627L34.379,73.16L39.084,68.386L47.715,70.122L52.272,63.301L46.702,66.292L40.188,64.136L38.526,57.86L43.36,52.956L43.616,53.212L44.633,54.138C47.358,56.538,50.505,58.412,53.913,59.665L54.545,59.894L54.865,60.011L55.181,60.098C55.614,60.228,56.034,60.37,56.449,60.47L57.722,60.795L58.99,61.037C64.27,61.898,69.681,61.24,74.606,59.15C74.188,59.269,73.765,59.37,73.338,59.453C71.256,59.937,69.126,60.187,66.988,60.197C66.153,60.215,65.287,60.202,64.448,60.098C62.765,59.962,61.097,59.683,59.462,59.262C52.963,57.565,47.275,53.623,43.404,48.135C42.456,46.786,41.626,45.358,40.924,43.867C40.225,42.384,39.66,40.841,39.236,39.257C38.799,37.675,38.506,36.057,38.361,34.423C38.235,32.795,38.235,31.16,38.361,29.532C38.491,27.909,38.76,26.303,39.171,24.736C39.598,23.169,40.151,21.639,40.824,20.161C41.486,18.711,42.274,17.322,43.17,16.006C44.998,13.343,47.294,11.034,49.948,9.193C55.256,5.465,61.731,3.779,68.183,4.445C73.018,4.921,77.645,6.696,81.575,9.583L82.527,10.319L83.47,11.098L84.371,11.92C84.661,12.206,84.942,12.5,85.236,12.794C89.867,17.656,92.636,23.995,93.057,30.696C93.282,34.093,92.925,37.504,92.001,40.781C91.525,42.447,90.906,44.066,90.145,45.615L90.019,45.914L89.868,46.208L89.573,46.784L89.257,47.351L88.941,47.914L88.24,49.022C88.015,49.394,87.76,49.758,87.517,50.113L88.396,49.139C88.66,48.805,88.954,48.455,89.218,48.109L89.612,47.581C89.742,47.403,89.881,47.234,89.993,47.057L90.361,46.503L90.551,46.234L90.729,45.949C91.694,44.434,92.508,42.832,93.17,41.157C94.489,37.809,95.184,34.247,95.222,30.648C95.235,28.824,95.09,27.003,94.789,25.203ZM16.646,74.212L12.695,73.031L20.023,65.577L21.035,69.43L16.646,74.212ZM31.436,69.884L25.238,68.148L23.593,61.916L28.108,57.328L34.28,59.024L35.942,65.322L31.436,69.884ZM35.383,54.744L31.739,53.744L38.595,46.788C39.179,47.762,39.807,48.702,40.486,49.602L35.383,54.744ZM35.383,54.744"/>
</g>
  <g id="Bold-L" transform="matrix(1.0,0.0,0.0,1.0,2293.6491978236604,1475.3233447265625)">  <path stroke-miterlimit="4" fill="#000000" stroke-linecap="butt" fill-opacity="1" fill-rule="nonzero" stroke-linejoin="miter" stroke-dasharray="none" stroke-width="1px" stroke="none" stroke-opacity="1" d="M94.789,25.203L94.533,23.918L94.204,22.632C94.204,22.416,94.075,22.195,94.014,21.975L93.824,21.308C93.785,21.203,93.751,21.096,93.724,20.988L93.607,20.598L93.369,19.949C92.74,18.219,91.949,16.552,91.006,14.971C86.255,6.839,77.974,1.394,68.624,0.255C66.785,0.016,64.928,-0.056,63.076,0.039C61.219,0.165,59.379,0.466,57.579,0.939C53.941,1.855,50.499,3.423,47.42,5.566C35.654,13.901,31.13,29.211,36.474,42.603L0,80.008L3.731,90.287L10.526,90.893L5.523,88.426L4.328,81.176L9.167,76.541L15.694,78.082L18.231,85.007L15.374,89.236L19.945,86.033L23.831,86.318L20.364,84.622L19.157,77.013L24.121,72.468L30.596,74.225L32.869,80.817L28.108,87.422L35.916,81.627L34.379,73.16L39.084,68.386L47.715,70.122L52.272,63.301L46.702,66.292L40.188,64.136L38.526,57.86L43.36,52.956L43.616,53.212L44.633,54.138C47.358,56.538,50.505,58.412,53.913,59.665L54.545,59.894L54.865,60.011L55.181,60.098C55.614,60.228,56.034,60.37,56.449,60.47L57.722,60.795L58.99,61.037C64.27,61.898,69.681,61.24,74.606,59.15C74.188,59.269,73.765,59.37,73.338,59.453C71.256,59.937,69.126,60.187,66.988,60.197C66.153,60.215,65.287,60.202,64.448,60.098C62.765,59.962,61.097,59.683,59.462,59.262C52.963,57.565,47.275,53.623,43.404,48.135C42.456,46.786,41.626,45.358,40.924,43.867C40.225,42.384,39.66,40.841,39.236,39.257C38.799,37.675,38.506,36.057,38.361,34.423C38.235,32.795,38.235,31.16,38.361,29.532C38.491,27.909,38.76,26.303,39.171,24.736C39.598,23.169,40.151,21.639,40.824,20.161C41.486,18.711,42.274,17.322,43.17,16.006C44.998,13.343,47.294,11.034,49.948,9.193C55.256,5.465,61.731,3.779,68.183,4.445C73.018,4.921,77.645,6.696,81.575,9.583L82.527,10.319L83.47,11.098L84.371,11.92C84.661,12.206,84.942,12.5,85.236,12.794C89.867,17.656,92.636,23.995,93.057,30.696C93.282,34.093,92.925,37.504,92.001,40.781C91.525,42.447,90.906,44.066,90.145,45.615L90.019,45.914L89.868,46.208L89.573,46.784L89.257,47.351L88.941,47.914L88.24,49.022C88.015,49.394,87.76,49.758,87.517,50.113L88.396,49.139C88.66,48.805,88.954,48.455,89.218,48.109L89.612,47.581C89.742,47.403,89.881,47.234,89.993,47.057L90.361,46.503L90.551,46.234L90.729,45.949C91.694,44.434,92.508,42.832,93.17,41.157C94.489,37.809,95.184,34.247,95.222,30.648C95.235,28.824,95.09,27.003,94.789,25.203ZM16.646,74.212L12.695,73.031L20.023,65.577L21.035,69.43L16.646,74.212ZM31.436,69.884L25.238,68.148L23.593,61.916L28.108,57.328L34.28,59.024L35.942,65.322L31.436,69.884ZM35.383,54.744L31.739,53.744L38.595,46.788C39.179,47.762,39.807,48.702,40.486,49.602L35.383,54.744ZM35.383,54.744"/>
</g>
  <g id="Semibold-L" transform="matrix(1.0,0.0,0.0,1.0,1996.9391978236606,1475.3233447265625)">  <path fill-rule="nonzero" fill-opacity="1" stroke="none" stroke-linejoin="miter" stroke-width="1px" stroke-miterlimit="4" stroke-opacity="1" stroke-dasharray="none" stroke-linecap="butt" fill="#000000" d="M94.789,25.203L94.533,23.918L94.204,22.632C94.204,22.416,94.075,22.195,94.014,21.975L93.824,21.308C93.785,21.203,93.751,21.096,93.724,20.988L93.607,20.598L93.369,19.949C92.74,18.219,91.949,16.552,91.006,14.971C86.255,6.839,77.974,1.394,68.624,0.255C66.785,0.016,64.928,-0.056,63.076,0.039C61.219,0.165,59.379,0.466,57.579,0.939C53.941,1.855,50.499,3.423,47.42,5.566C35.654,13.901,31.13,29.211,36.474,42.603L0,80.008L3.731,90.287L10.526,90.893L5.523,88.426L4.328,81.176L9.167,76.541L15.694,78.082L18.231,85.007L15.374,89.236L19.945,86.033L23.831,86.318L20.364,84.622L19.157,77.013L24.121,72.468L30.596,74.225L32.869,80.817L28.108,87.422L35.916,81.627L34.379,73.16L39.084,68.386L47.715,70.122L52.272,63.301L46.702,66.292L40.188,64.136L38.526,57.86L43.36,52.956L43.616,53.212L44.633,54.138C47.358,56.538,50.505,58.412,53.913,59.665L54.545,59.894L54.865,60.011L55.181,60.098C55.614,60.228,56.034,60.37,56.449,60.47L57.722,60.795L58.99,61.037C64.27,61.898,69.681,61.24,74.606,59.15C74.188,59.269,73.765,59.37,73.338,59.453C71.256,59.937,69.126,60.187,66.988,60.197C66.153,60.215,65.287,60.202,64.448,60.098C62.765,59.962,61.097,59.683,59.462,59.262C52.963,57.565,47.275,53.623,43.404,48.135C42.456,46.786,41.626,45.358,40.924,43.867C40.225,42.384,39.66,40.841,39.236,39.257C38.799,37.675,38.506,36.057,38.361,34.423C38.235,32.795,38.235,31.16,38.361,29.532C38.491,27.909,38.76,26.303,39.171,24.736C39.598,23.169,40.151,21.639,40.824,20.161C41.486,18.711,42.274,17.322,43.17,16.006C44.998,13.343,47.294,11.034,49.948,9.193C55.256,5.465,61.731,3.779,68.183,4.445C73.018,4.921,77.645,6.696,81.575,9.583L82.527,10.319L83.47,11.098L84.371,11.92C84.661,12.206,84.942,12.5,85.236,12.794C89.867,17.656,92.636,23.995,93.057,30.696C93.282,34.093,92.925,37.504,92.001,40.781C91.525,42.447,90.906,44.066,90.145,45.615L90.019,45.914L89.868,46.208L89.573,46.784L89.257,47.351L88.941,47.914L88.24,49.022C88.015,49.394,87.76,49.758,87.517,50.113L88.396,49.139C88.66,48.805,88.954,48.455,89.218,48.109L89.612,47.581C89.742,47.403,89.881,47.234,89.993,47.057L90.361,46.503L90.551,46.234L90.729,45.949C91.694,44.434,92.508,42.832,93.17,41.157C94.489,37.809,95.184,34.247,95.222,30.648C95.235,28.824,95.09,27.003,94.789,25.203ZM16.646,74.212L12.695,73.031L20.023,65.577L21.035,69.43L16.646,74.212ZM31.436,69.884L25.238,68.148L23.593,61.916L28.108,57.328L34.28,59.024L35.942,65.322L31.436,69.884ZM35.383,54.744L31.739,53.744L38.595,46.788C39.179,47.762,39.807,48.702,40.486,49.602L35.383,54.744ZM35.383,54.744"/>
</g>
  <g id="Medium-L" transform="matrix(1.0,0.0,0.0,1.0,1700.2291978236606,1475.3233447265625)">  <path stroke-linecap="butt" fill-rule="nonzero" stroke-opacity="1" stroke-dasharray="none" stroke-width="1px" stroke="none" fill-opacity="1" stroke-miterlimit="4" stroke-linejoin="miter" fill="#000000" d="M94.789,25.203L94.533,23.918L94.204,22.632C94.204,22.416,94.075,22.195,94.014,21.975L93.824,21.308C93.785,21.203,93.751,21.096,93.724,20.988L93.607,20.598L93.369,19.949C92.74,18.219,91.949,16.552,91.006,14.971C86.255,6.839,77.974,1.394,68.624,0.255C66.785,0.016,64.928,-0.056,63.076,0.039C61.219,0.165,59.379,0.466,57.579,0.939C53.941,1.855,50.499,3.423,47.42,5.566C35.654,13.901,31.13,29.211,36.474,42.603L0,80.008L3.731,90.287L10.526,90.893L5.523,88.426L4.328,81.176L9.167,76.541L15.694,78.082L18.231,85.007L15.374,89.236L19.945,86.033L23.831,86.318L20.364,84.622L19.157,77.013L24.121,72.468L30.596,74.225L32.869,80.817L28.108,87.422L35.916,81.627L34.379,73.16L39.084,68.386L47.715,70.122L52.272,63.301L46.702,66.292L40.188,64.136L38.526,57.86L43.36,52.956L43.616,53.212L44.633,54.138C47.358,56.538,50.505,58.412,53.913,59.665L54.545,59.894L54.865,60.011L55.181,60.098C55.614,60.228,56.034,60.37,56.449,60.47L57.722,60.795L58.99,61.037C64.27,61.898,69.681,61.24,74.606,59.15C74.188,59.269,73.765,59.37,73.338,59.453C71.256,59.937,69.126,60.187,66.988,60.197C66.153,60.215,65.287,60.202,64.448,60.098C62.765,59.962,61.097,59.683,59.462,59.262C52.963,57.565,47.275,53.623,43.404,48.135C42.456,46.786,41.626,45.358,40.924,43.867C40.225,42.384,39.66,40.841,39.236,39.257C38.799,37.675,38.506,36.057,38.361,34.423C38.235,32.795,38.235,31.16,38.361,29.532C38.491,27.909,38.76,26.303,39.171,24.736C39.598,23.169,40.151,21.639,40.824,20.161C41.486,18.711,42.274,17.322,43.17,16.006C44.998,13.343,47.294,11.034,49.948,9.193C55.256,5.465,61.731,3.779,68.183,4.445C73.018,4.921,77.645,6.696,81.575,9.583L82.527,10.319L83.47,11.098L84.371,11.92C84.661,12.206,84.942,12.5,85.236,12.794C89.867,17.656,92.636,23.995,93.057,30.696C93.282,34.093,92.925,37.504,92.001,40.781C91.525,42.447,90.906,44.066,90.145,45.615L90.019,45.914L89.868,46.208L89.573,46.784L89.257,47.351L88.941,47.914L88.24,49.022C88.015,49.394,87.76,49.758,87.517,50.113L88.396,49.139C88.66,48.805,88.954,48.455,89.218,48.109L89.612,47.581C89.742,47.403,89.881,47.234,89.993,47.057L90.361,46.503L90.551,46.234L90.729,45.949C91.694,44.434,92.508,42.832,93.17,41.157C94.489,37.809,95.184,34.247,95.222,30.648C95.235,28.824,95.09,27.003,94.789,25.203ZM16.646,74.212L12.695,73.031L20.023,65.577L21.035,69.43L16.646,74.212ZM31.436,69.884L25.238,68.148L23.593,61.916L28.108,57.328L34.28,59.024L35.942,65.322L31.436,69.884ZM35.383,54.744L31.739,53.744L38.595,46.788C39.179,47.762,39.807,48.702,40.486,49.602L35.383,54.744ZM35.383,54.744"/>
</g>
  <g id="Regular-L" transform="matrix(1.0,0.0,0.0,1.0,1403.5191978236605,1475.3233447265625)">  <path stroke-linejoin="miter" fill-opacity="1" stroke-linecap="butt" stroke-width="1px" stroke="none" fill="#000000" fill-rule="nonzero" stroke-opacity="1" stroke-dasharray="none" stroke-miterlimit="4" d="M94.789,25.203L94.533,23.918L94.204,22.632C94.204,22.416,94.075,22.195,94.014,21.975L93.824,21.308C93.785,21.203,93.751,21.096,93.724,20.988L93.607,20.598L93.369,19.949C92.74,18.219,91.949,16.552,91.006,14.971C86.255,6.839,77.974,1.394,68.624,0.255C66.785,0.016,64.928,-0.056,63.076,0.039C61.219,0.165,59.379,0.466,57.579,0.939C53.941,1.855,50.499,3.423,47.42,5.566C35.654,13.901,31.13,29.211,36.474,42.603L0,80.008L3.731,90.287L10.526,90.893L5.523,88.426L4.328,81.176L9.167,76.541L15.694,78.082L18.231,85.007L15.374,89.236L19.945,86.033L23.831,86.318L20.364,84.622L19.157,77.013L24.121,72.468L30.596,74.225L32.869,80.817L28.108,87.422L35.916,81.627L34.379,73.16L39.084,68.386L47.715,70.122L52.272,63.301L46.702,66.292L40.188,64.136L38.526,57.86L43.36,52.956L43.616,53.212L44.633,54.138C47.358,56.538,50.505,58.412,53.913,59.665L54.545,59.894L54.865,60.011L55.181,60.098C55.614,60.228,56.034,60.37,56.449,60.47L57.722,60.795L58.99,61.037C64.27,61.898,69.681,61.24,74.606,59.15C74.188,59.269,73.765,59.37,73.338,59.453C71.256,59.937,69.126,60.187,66.988,60.197C66.153,60.215,65.287,60.202,64.448,60.098C62.765,59.962,61.097,59.683,59.462,59.262C52.963,57.565,47.275,53.623,43.404,48.135C42.456,46.786,41.626,45.358,40.924,43.867C40.225,42.384,39.66,40.841,39.236,39.257C38.799,37.675,38.506,36.057,38.361,34.423C38.235,32.795,38.235,31.16,38.361,29.532C38.491,27.909,38.76,26.303,39.171,24.736C39.598,23.169,40.151,21.639,40.824,20.161C41.486,18.711,42.274,17.322,43.17,16.006C44.998,13.343,47.294,11.034,49.948,9.193C55.256,5.465,61.731,3.779,68.183,4.445C73.018,4.921,77.645,6.696,81.575,9.583L82.527,10.319L83.47,11.098L84.371,11.92C84.661,12.206,84.942,12.5,85.236,12.794C89.867,17.656,92.636,23.995,93.057,30.696C93.282,34.093,92.925,37.504,92.001,40.781C91.525,42.447,90.906,44.066,90.145,45.615L90.019,45.914L89.868,46.208L89.573,46.784L89.257,47.351L88.941,47.914L88.24,49.022C88.015,49.394,87.76,49.758,87.517,50.113L88.396,49.139C88.66,48.805,88.954,48.455,89.218,48.109L89.612,47.581C89.742,47.403,89.881,47.234,89.993,47.057L90.361,46.503L90.551,46.234L90.729,45.949C91.694,44.434,92.508,42.832,93.17,41.157C94.489,37.809,95.184,34.247,95.222,30.648C95.235,28.824,95.09,27.003,94.789,25.203ZM16.646,74.212L12.695,73.031L20.023,65.577L21.035,69.43L16.646,74.212ZM31.436,69.884L25.238,68.148L23.593,61.916L28.108,57.328L34.28,59.024L35.942,65.322L31.436,69.884ZM35.383,54.744L31.739,53.744L38.595,46.788C39.179,47.762,39.807,48.702,40.486,49.602L35.383,54.744ZM35.383,54.744"/>
</g>
  <g id="Light-L" transform="matrix(1.0,0.0,0.0,1.0,1106.8091978236607,1475.3233447265625)">  <path stroke-linejoin="miter" fill="#000000" stroke-width="1px" fill-opacity="1" fill-rule="nonzero" stroke="none" stroke-miterlimit="4" stroke-dasharray="none" stroke-linecap="butt" stroke-opacity="1" d="M94.789,25.203L94.533,23.918L94.204,22.632C94.204,22.416,94.075,22.195,94.014,21.975L93.824,21.308C93.785,21.203,93.751,21.096,93.724,20.988L93.607,20.598L93.369,19.949C92.74,18.219,91.949,16.552,91.006,14.971C86.255,6.839,77.974,1.394,68.624,0.255C66.785,0.016,64.928,-0.056,63.076,0.039C61.219,0.165,59.379,0.466,57.579,0.939C53.941,1.855,50.499,3.423,47.42,5.566C35.654,13.901,31.13,29.211,36.474,42.603L0,80.008L3.731,90.287L10.526,90.893L5.523,88.426L4.328,81.176L9.167,76.541L15.694,78.082L18.231,85.007L15.374,89.236L19.945,86.033L23.831,86.318L20.364,84.622L19.157,77.013L24.121,72.468L30.596,74.225L32.869,80.817L28.108,87.422L35.916,81.627L34.379,73.16L39.084,68.386L47.715,70.122L52.272,63.301L46.702,66.292L40.188,64.136L38.526,57.86L43.36,52.956L43.616,53.212L44.633,54.138C47.358,56.538,50.505,58.412,53.913,59.665L54.545,59.894L54.865,60.011L55.181,60.098C55.614,60.228,56.034,60.37,56.449,60.47L57.722,60.795L58.99,61.037C64.27,61.898,69.681,61.24,74.606,59.15C74.188,59.269,73.765,59.37,73.338,59.453C71.256,59.937,69.126,60.187,66.988,60.197C66.153,60.215,65.287,60.202,64.448,60.098C62.765,59.962,61.097,59.683,59.462,59.262C52.963,57.565,47.275,53.623,43.404,48.135C42.456,46.786,41.626,45.358,40.924,43.867C40.225,42.384,39.66,40.841,39.236,39.257C38.799,37.675,38.506,36.057,38.361,34.423C38.235,32.795,38.235,31.16,38.361,29.532C38.491,27.909,38.76,26.303,39.171,24.736C39.598,23.169,40.151,21.639,40.824,20.161C41.486,18.711,42.274,17.322,43.17,16.006C44.998,13.343,47.294,11.034,49.948,9.193C55.256,5.465,61.731,3.779,68.183,4.445C73.018,4.921,77.645,6.696,81.575,9.583L82.527,10.319L83.47,11.098L84.371,11.92C84.661,12.206,84.942,12.5,85.236,12.794C89.867,17.656,92.636,23.995,93.057,30.696C93.282,34.093,92.925,37.504,92.001,40.781C91.525,42.447,90.906,44.066,90.145,45.615L90.019,45.914L89.868,46.208L89.573,46.784L89.257,47.351L88.941,47.914L88.24,49.022C88.015,49.394,87.76,49.758,87.517,50.113L88.396,49.139C88.66,48.805,88.954,48.455,89.218,48.109L89.612,47.581C89.742,47.403,89.881,47.234,89.993,47.057L90.361,46.503L90.551,46.234L90.729,45.949C91.694,44.434,92.508,42.832,93.17,41.157C94.489,37.809,95.184,34.247,95.222,30.648C95.235,28.824,95.09,27.003,94.789,25.203ZM16.646,74.212L12.695,73.031L20.023,65.577L21.035,69.43L16.646,74.212ZM31.436,69.884L25.238,68.148L23.593,61.916L28.108,57.328L34.28,59.024L35.942,65.322L31.436,69.884ZM35.383,54.744L31.739,53.744L38.595,46.788C39.179,47.762,39.807,48.702,40.486,49.602L35.383,54.744ZM35.383,54.744"/>
</g>
  <g id="Thin-L" transform="matrix(1.0,0.0,0.0,1.0,810.0991978236607,1475.3233447265625)">  <path fill-opacity="1" fill-rule="nonzero" stroke-width="1px" stroke-opacity="1" stroke-miterlimit="4" stroke-dasharray="none" stroke-linecap="butt" fill="#000000" stroke-linejoin="miter" stroke="none" d="M94.789,25.203L94.533,23.918L94.204,22.632C94.204,22.416,94.075,22.195,94.014,21.975L93.824,21.308C93.785,21.203,93.751,21.096,93.724,20.988L93.607,20.598L93.369,19.949C92.74,18.219,91.949,16.552,91.006,14.971C86.255,6.839,77.974,1.394,68.624,0.255C66.785,0.016,64.928,-0.056,63.076,0.039C61.219,0.165,59.379,0.466,57.579,0.939C53.941,1.855,50.499,3.423,47.42,5.566C35.654,13.901,31.13,29.211,36.474,42.603L0,80.008L3.731,90.287L10.526,90.893L5.523,88.426L4.328,81.176L9.167,76.541L15.694,78.082L18.231,85.007L15.374,89.236L19.945,86.033L23.831,86.318L20.364,84.622L19.157,77.013L24.121,72.468L30.596,74.225L32.869,80.817L28.108,87.422L35.916,81.627L34.379,73.16L39.084,68.386L47.715,70.122L52.272,63.301L46.702,66.292L40.188,64.136L38.526,57.86L43.36,52.956L43.616,53.212L44.633,54.138C47.358,56.538,50.505,58.412,53.913,59.665L54.545,59.894L54.865,60.011L55.181,60.098C55.614,60.228,56.034,60.37,56.449,60.47L57.722,60.795L58.99,61.037C64.27,61.898,69.681,61.24,74.606,59.15C74.188,59.269,73.765,59.37,73.338,59.453C71.256,59.937,69.126,60.187,66.988,60.197C66.153,60.215,65.287,60.202,64.448,60.098C62.765,59.962,61.097,59.683,59.462,59.262C52.963,57.565,47.275,53.623,43.404,48.135C42.456,46.786,41.626,45.358,40.924,43.867C40.225,42.384,39.66,40.841,39.236,39.257C38.799,37.675,38.506,36.057,38.361,34.423C38.235,32.795,38.235,31.16,38.361,29.532C38.491,27.909,38.76,26.303,39.171,24.736C39.598,23.169,40.151,21.639,40.824,20.161C41.486,18.711,42.274,17.322,43.17,16.006C44.998,13.343,47.294,11.034,49.948,9.193C55.256,5.465,61.731,3.779,68.183,4.445C73.018,4.921,77.645,6.696,81.575,9.583L82.527,10.319L83.47,11.098L84.371,11.92C84.661,12.206,84.942,12.5,85.236,12.794C89.867,17.656,92.636,23.995,93.057,30.696C93.282,34.093,92.925,37.504,92.001,40.781C91.525,42.447,90.906,44.066,90.145,45.615L90.019,45.914L89.868,46.208L89.573,46.784L89.257,47.351L88.941,47.914L88.24,49.022C88.015,49.394,87.76,49.758,87.517,50.113L88.396,49.139C88.66,48.805,88.954,48.455,89.218,48.109L89.612,47.581C89.742,47.403,89.881,47.234,89.993,47.057L90.361,46.503L90.551,46.234L90.729,45.949C91.694,44.434,92.508,42.832,93.17,41.157C94.489,37.809,95.184,34.247,95.222,30.648C95.235,28.824,95.09,27.003,94.789,25.203ZM16.646,74.212L12.695,73.031L20.023,65.577L21.035,69.43L16.646,74.212ZM31.436,69.884L25.238,68.148L23.593,61.916L28.108,57.328L34.28,59.024L35.942,65.322L31.436,69.884ZM35.383,54.744L31.739,53.744L38.595,46.788C39.179,47.762,39.807,48.702,40.486,49.602L35.383,54.744ZM35.383,54.744"/>
</g>
  <g id="Ultralight-L" transform="matrix(1.0,0.0,0.0,1.0,513.3891978236607,1475.3233447265625)">  <path stroke-dasharray="none" fill-opacity="1" stroke-width="1px" stroke-opacity="1" fill="#000000" stroke="none" stroke-linejoin="miter" fill-rule="nonzero" stroke-miterlimit="4" stroke-linecap="butt" d="M94.789,25.203L94.533,23.918L94.204,22.632C94.204,22.416,94.075,22.195,94.014,21.975L93.824,21.308C93.785,21.203,93.751,21.096,93.724,20.988L93.607,20.598L93.369,19.949C92.74,18.219,91.949,16.552,91.006,14.971C86.255,6.839,77.974,1.394,68.624,0.255C66.785,0.016,64.928,-0.056,63.076,0.039C61.219,0.165,59.379,0.466,57.579,0.939C53.941,1.855,50.499,3.423,47.42,5.566C35.654,13.901,31.13,29.211,36.474,42.603L0,80.008L3.731,90.287L10.526,90.893L5.523,88.426L4.328,81.176L9.167,76.541L15.694,78.082L18.231,85.007L15.374,89.236L19.945,86.033L23.831,86.318L20.364,84.622L19.157,77.013L24.121,72.468L30.596,74.225L32.869,80.817L28.108,87.422L35.916,81.627L34.379,73.16L39.084,68.386L47.715,70.122L52.272,63.301L46.702,66.292L40.188,64.136L38.526,57.86L43.36,52.956L43.616,53.212L44.633,54.138C47.358,56.538,50.505,58.412,53.913,59.665L54.545,59.894L54.865,60.011L55.181,60.098C55.614,60.228,56.034,60.37,56.449,60.47L57.722,60.795L58.99,61.037C64.27,61.898,69.681,61.24,74.606,59.15C74.188,59.269,73.765,59.37,73.338,59.453C71.256,59.937,69.126,60.187,66.988,60.197C66.153,60.215,65.287,60.202,64.448,60.098C62.765,59.962,61.097,59.683,59.462,59.262C52.963,57.565,47.275,53.623,43.404,48.135C42.456,46.786,41.626,45.358,40.924,43.867C40.225,42.384,39.66,40.841,39.236,39.257C38.799,37.675,38.506,36.057,38.361,34.423C38.235,32.795,38.235,31.16,38.361,29.532C38.491,27.909,38.76,26.303,39.171,24.736C39.598,23.169,40.151,21.639,40.824,20.161C41.486,18.711,42.274,17.322,43.17,16.006C44.998,13.343,47.294,11.034,49.948,9.193C55.256,5.465,61.731,3.779,68.183,4.445C73.018,4.921,77.645,6.696,81.575,9.583L82.527,10.319L83.47,11.098L84.371,11.92C84.661,12.206,84.942,12.5,85.236,12.794C89.867,17.656,92.636,23.995,93.057,30.696C93.282,34.093,92.925,37.504,92.001,40.781C91.525,42.447,90.906,44.066,90.145,45.615L90.019,45.914L89.868,46.208L89.573,46.784L89.257,47.351L88.941,47.914L88.24,49.022C88.015,49.394,87.76,49.758,87.517,50.113L88.396,49.139C88.66,48.805,88.954,48.455,89.218,48.109L89.612,47.581C89.742,47.403,89.881,47.234,89.993,47.057L90.361,46.503L90.551,46.234L90.729,45.949C91.694,44.434,92.508,42.832,93.17,41.157C94.489,37.809,95.184,34.247,95.222,30.648C95.235,28.824,95.09,27.003,94.789,25.203ZM16.646,74.212L12.695,73.031L20.023,65.577L21.035,69.43L16.646,74.212ZM31.436,69.884L25.238,68.148L23.593,61.916L28.108,57.328L34.28,59.024L35.942,65.322L31.436,69.884ZM35.383,54.744L31.739,53.744L38.595,46.788C39.179,47.762,39.807,48.702,40.486,49.602L35.383,54.744ZM35.383,54.744"/>
</g>
  <g id="Black-M" transform="matrix(1.0,0.0,0.0,1.0,2897.77240141369,1055.5400390625)">  <path stroke-linejoin="miter" stroke="none" stroke-linecap="butt" fill-opacity="1" stroke-width="1px" stroke-dasharray="none" stroke-opacity="1" fill="#000000" fill-rule="nonzero" stroke-miterlimit="4" d="M73.48,19.538L73.282,18.541L73.027,17.545C73.027,17.377,72.926,17.206,72.879,17.035L72.731,16.518C72.701,16.437,72.676,16.354,72.654,16.27L72.564,15.968L72.379,15.464C71.892,14.123,71.278,12.831,70.547,11.606C66.864,5.301,60.445,1.081,53.197,0.198C51.771,0.013,50.332,-0.044,48.896,0.03C47.457,0.128,46.03,0.361,44.635,0.728C41.815,1.438,39.147,2.653,36.76,4.315C27.639,10.776,24.131,22.644,28.275,33.026L0,62.022L2.892,69.99L8.16,70.46L4.281,68.547L3.355,62.927L7.106,59.334L12.166,60.528L14.132,65.897L11.918,69.175L15.461,66.692L18.474,66.913L15.786,65.598L14.85,59.7L18.699,56.177L23.718,57.539L25.48,62.649L21.789,67.769L27.842,63.276L26.651,56.714L30.298,53.013L36.988,54.358L40.521,49.07L36.203,51.389L31.153,49.718L29.865,44.853L33.613,41.051L33.811,41.249L34.599,41.967C36.712,43.828,39.151,45.28,41.793,46.252L42.283,46.43L42.531,46.52L42.776,46.587C43.111,46.688,43.437,46.799,43.759,46.876L44.745,47.128L45.729,47.316C49.822,47.983,54.016,47.473,57.834,45.853C57.51,45.945,57.182,46.023,56.851,46.088C55.237,46.463,53.586,46.656,51.929,46.665C51.281,46.678,50.61,46.668,49.959,46.587C48.655,46.482,47.362,46.266,46.094,45.94C41.057,44.624,36.647,41.568,33.646,37.314C32.911,36.268,32.268,35.161,31.724,34.005C31.182,32.856,30.744,31.66,30.415,30.432C30.077,29.206,29.85,27.951,29.737,26.684C29.639,25.422,29.639,24.155,29.737,22.893C29.838,21.635,30.046,20.39,30.365,19.175C30.696,17.96,31.125,16.774,31.647,15.629C32.16,14.505,32.771,13.428,33.465,12.408C34.882,10.343,36.662,8.554,38.719,7.127C42.834,4.237,47.854,2.93,52.855,3.446C56.603,3.815,60.19,5.191,63.236,7.428L63.974,7.999L64.706,8.603L65.404,9.24C65.628,9.462,65.847,9.69,66.075,9.918C69.664,13.687,71.811,18.601,72.138,23.795C72.312,26.429,72.035,29.073,71.319,31.613C70.95,32.905,70.47,34.16,69.88,35.361L69.782,35.592L69.665,35.821L69.437,36.267L69.192,36.706L68.947,37.142L68.403,38.001C68.229,38.29,68.031,38.572,67.843,38.847L68.524,38.092C68.729,37.834,68.957,37.562,69.161,37.293L69.467,36.884C69.567,36.747,69.675,36.616,69.762,36.478L70.047,36.049L70.195,35.841L70.332,35.619C71.081,34.445,71.711,33.203,72.225,31.905C73.247,29.309,73.786,26.548,73.815,23.758C73.825,22.344,73.713,20.932,73.48,19.538ZM12.904,57.529L9.841,56.613L15.521,50.835L16.306,53.821L12.904,57.529ZM24.369,54.174L19.564,52.828L18.289,47.997L21.789,44.44L26.573,45.755L27.862,50.637L24.369,54.174ZM27.429,42.437L24.604,41.662L29.919,36.27C30.372,37.025,30.858,37.753,31.385,38.451L27.429,42.437ZM27.429,42.437"/>
</g>
  <g id="Heavy-M" transform="matrix(1.0,0.0,0.0,1.0,2601.06240141369,1055.5400390625)">  <path fill-rule="nonzero" fill="#000000" stroke="none" fill-opacity="1" stroke-dasharray="none" stroke-linejoin="miter" stroke-opacity="1" stroke-linecap="butt" stroke-width="1px" stroke-miterlimit="4" d="M73.48,19.538L73.282,18.541L73.027,17.545C73.027,17.377,72.926,17.206,72.879,17.035L72.731,16.518C72.701,16.437,72.676,16.354,72.654,16.27L72.564,15.968L72.379,15.464C71.892,14.123,71.278,12.831,70.547,11.606C66.864,5.301,60.445,1.081,53.197,0.198C51.771,0.013,50.332,-0.044,48.896,0.03C47.457,0.128,46.03,0.361,44.635,0.728C41.815,1.438,39.147,2.653,36.76,4.315C27.639,10.776,24.131,22.644,28.275,33.026L0,62.022L2.892,69.99L8.16,70.46L4.281,68.547L3.355,62.927L7.106,59.334L12.166,60.528L14.132,65.897L11.918,69.175L15.461,66.692L18.474,66.913L15.786,65.598L14.85,59.7L18.699,56.177L23.718,57.539L25.48,62.649L21.789,67.769L27.842,63.276L26.651,56.714L30.298,53.013L36.988,54.358L40.521,49.07L36.203,51.389L31.153,49.718L29.865,44.853L33.613,41.051L33.811,41.249L34.599,41.967C36.712,43.828,39.151,45.28,41.793,46.252L42.283,46.43L42.531,46.52L42.776,46.587C43.111,46.688,43.437,46.799,43.759,46.876L44.745,47.128L45.729,47.316C49.822,47.983,54.016,47.473,57.834,45.853C57.51,45.945,57.182,46.023,56.851,46.088C55.237,46.463,53.586,46.656,51.929,46.665C51.281,46.678,50.61,46.668,49.959,46.587C48.655,46.482,47.362,46.266,46.094,45.94C41.057,44.624,36.647,41.568,33.646,37.314C32.911,36.268,32.268,35.161,31.724,34.005C31.182,32.856,30.744,31.66,30.415,30.432C30.077,29.206,29.85,27.951,29.737,26.684C29.639,25.422,29.639,24.155,29.737,22.893C29.838,21.635,30.046,20.39,30.365,19.175C30.696,17.96,31.125,16.774,31.647,15.629C32.16,14.505,32.771,13.428,33.465,12.408C34.882,10.343,36.662,8.554,38.719,7.127C42.834,4.237,47.854,2.93,52.855,3.446C56.603,3.815,60.19,5.191,63.236,7.428L63.974,7.999L64.706,8.603L65.404,9.24C65.628,9.462,65.847,9.69,66.075,9.918C69.664,13.687,71.811,18.601,72.138,23.795C72.312,26.429,72.035,29.073,71.319,31.613C70.95,32.905,70.47,34.16,69.88,35.361L69.782,35.592L69.665,35.821L69.437,36.267L69.192,36.706L68.947,37.142L68.403,38.001C68.229,38.29,68.031,38.572,67.843,38.847L68.524,38.092C68.729,37.834,68.957,37.562,69.161,37.293L69.467,36.884C69.567,36.747,69.675,36.616,69.762,36.478L70.047,36.049L70.195,35.841L70.332,35.619C71.081,34.445,71.711,33.203,72.225,31.905C73.247,29.309,73.786,26.548,73.815,23.758C73.825,22.344,73.713,20.932,73.48,19.538ZM12.904,57.529L9.841,56.613L15.521,50.835L16.306,53.821L12.904,57.529ZM24.369,54.174L19.564,52.828L18.289,47.997L21.789,44.44L26.573,45.755L27.862,50.637L24.369,54.174ZM27.429,42.437L24.604,41.662L29.919,36.27C30.372,37.025,30.858,37.753,31.385,38.451L27.429,42.437ZM27.429,42.437"/>
</g>
  <g id="Bold-M" transform="matrix(1.0,0.0,0.0,1.0,2304.35240141369,1055.5400390625)">  <path stroke-miterlimit="4" fill="#000000" stroke-linecap="butt" fill-opacity="1" fill-rule="nonzero" stroke-linejoin="miter" stroke-dasharray="none" stroke-width="1px" stroke="none" stroke-opacity="1" d="M73.48,19.538L73.282,18.541L73.027,17.545C73.027,17.377,72.926,17.206,72.879,17.035L72.731,16.518C72.701,16.437,72.676,16.354,72.654,16.27L72.564,15.968L72.379,15.464C71.892,14.123,71.278,12.831,70.547,11.606C66.864,5.301,60.445,1.081,53.197,0.198C51.771,0.013,50.332,-0.044,48.896,0.03C47.457,0.128,46.03,0.361,44.635,0.728C41.815,1.438,39.147,2.653,36.76,4.315C27.639,10.776,24.131,22.644,28.275,33.026L0,62.022L2.892,69.99L8.16,70.46L4.281,68.547L3.355,62.927L7.106,59.334L12.166,60.528L14.132,65.897L11.918,69.175L15.461,66.692L18.474,66.913L15.786,65.598L14.85,59.7L18.699,56.177L23.718,57.539L25.48,62.649L21.789,67.769L27.842,63.276L26.651,56.714L30.298,53.013L36.988,54.358L40.521,49.07L36.203,51.389L31.153,49.718L29.865,44.853L33.613,41.051L33.811,41.249L34.599,41.967C36.712,43.828,39.151,45.28,41.793,46.252L42.283,46.43L42.531,46.52L42.776,46.587C43.111,46.688,43.437,46.799,43.759,46.876L44.745,47.128L45.729,47.316C49.822,47.983,54.016,47.473,57.834,45.853C57.51,45.945,57.182,46.023,56.851,46.088C55.237,46.463,53.586,46.656,51.929,46.665C51.281,46.678,50.61,46.668,49.959,46.587C48.655,46.482,47.362,46.266,46.094,45.94C41.057,44.624,36.647,41.568,33.646,37.314C32.911,36.268,32.268,35.161,31.724,34.005C31.182,32.856,30.744,31.66,30.415,30.432C30.077,29.206,29.85,27.951,29.737,26.684C29.639,25.422,29.639,24.155,29.737,22.893C29.838,21.635,30.046,20.39,30.365,19.175C30.696,17.96,31.125,16.774,31.647,15.629C32.16,14.505,32.771,13.428,33.465,12.408C34.882,10.343,36.662,8.554,38.719,7.127C42.834,4.237,47.854,2.93,52.855,3.446C56.603,3.815,60.19,5.191,63.236,7.428L63.974,7.999L64.706,8.603L65.404,9.24C65.628,9.462,65.847,9.69,66.075,9.918C69.664,13.687,71.811,18.601,72.138,23.795C72.312,26.429,72.035,29.073,71.319,31.613C70.95,32.905,70.47,34.16,69.88,35.361L69.782,35.592L69.665,35.821L69.437,36.267L69.192,36.706L68.947,37.142L68.403,38.001C68.229,38.29,68.031,38.572,67.843,38.847L68.524,38.092C68.729,37.834,68.957,37.562,69.161,37.293L69.467,36.884C69.567,36.747,69.675,36.616,69.762,36.478L70.047,36.049L70.195,35.841L70.332,35.619C71.081,34.445,71.711,33.203,72.225,31.905C73.247,29.309,73.786,26.548,73.815,23.758C73.825,22.344,73.713,20.932,73.48,19.538ZM12.904,57.529L9.841,56.613L15.521,50.835L16.306,53.821L12.904,57.529ZM24.369,54.174L19.564,52.828L18.289,47.997L21.789,44.44L26.573,45.755L27.862,50.637L24.369,54.174ZM27.429,42.437L24.604,41.662L29.919,36.27C30.372,37.025,30.858,37.753,31.385,38.451L27.429,42.437ZM27.429,42.437"/>
</g>
  <g id="Semibold-M" transform="matrix(1.0,0.0,0.0,1.0,2007.6424014136903,1055.5400390625)">  <path fill-rule="nonzero" fill-opacity="1" stroke="none" stroke-linejoin="miter" stroke-width="1px" stroke-miterlimit="4" stroke-opacity="1" stroke-dasharray="none" stroke-linecap="butt" fill="#000000" d="M73.48,19.538L73.282,18.541L73.027,17.545C73.027,17.377,72.926,17.206,72.879,17.035L72.731,16.518C72.701,16.437,72.676,16.354,72.654,16.27L72.564,15.968L72.379,15.464C71.892,14.123,71.278,12.831,70.547,11.606C66.864,5.301,60.445,1.081,53.197,0.198C51.771,0.013,50.332,-0.044,48.896,0.03C47.457,0.128,46.03,0.361,44.635,0.728C41.815,1.438,39.147,2.653,36.76,4.315C27.639,10.776,24.131,22.644,28.275,33.026L0,62.022L2.892,69.99L8.16,70.46L4.281,68.547L3.355,62.927L7.106,59.334L12.166,60.528L14.132,65.897L11.918,69.175L15.461,66.692L18.474,66.913L15.786,65.598L14.85,59.7L18.699,56.177L23.718,57.539L25.48,62.649L21.789,67.769L27.842,63.276L26.651,56.714L30.298,53.013L36.988,54.358L40.521,49.07L36.203,51.389L31.153,49.718L29.865,44.853L33.613,41.051L33.811,41.249L34.599,41.967C36.712,43.828,39.151,45.28,41.793,46.252L42.283,46.43L42.531,46.52L42.776,46.587C43.111,46.688,43.437,46.799,43.759,46.876L44.745,47.128L45.729,47.316C49.822,47.983,54.016,47.473,57.834,45.853C57.51,45.945,57.182,46.023,56.851,46.088C55.237,46.463,53.586,46.656,51.929,46.665C51.281,46.678,50.61,46.668,49.959,46.587C48.655,46.482,47.362,46.266,46.094,45.94C41.057,44.624,36.647,41.568,33.646,37.314C32.911,36.268,32.268,35.161,31.724,34.005C31.182,32.856,30.744,31.66,30.415,30.432C30.077,29.206,29.85,27.951,29.737,26.684C29.639,25.422,29.639,24.155,29.737,22.893C29.838,21.635,30.046,20.39,30.365,19.175C30.696,17.96,31.125,16.774,31.647,15.629C32.16,14.505,32.771,13.428,33.465,12.408C34.882,10.343,36.662,8.554,38.719,7.127C42.834,4.237,47.854,2.93,52.855,3.446C56.603,3.815,60.19,5.191,63.236,7.428L63.974,7.999L64.706,8.603L65.404,9.24C65.628,9.462,65.847,9.69,66.075,9.918C69.664,13.687,71.811,18.601,72.138,23.795C72.312,26.429,72.035,29.073,71.319,31.613C70.95,32.905,70.47,34.16,69.88,35.361L69.782,35.592L69.665,35.821L69.437,36.267L69.192,36.706L68.947,37.142L68.403,38.001C68.229,38.29,68.031,38.572,67.843,38.847L68.524,38.092C68.729,37.834,68.957,37.562,69.161,37.293L69.467,36.884C69.567,36.747,69.675,36.616,69.762,36.478L70.047,36.049L70.195,35.841L70.332,35.619C71.081,34.445,71.711,33.203,72.225,31.905C73.247,29.309,73.786,26.548,73.815,23.758C73.825,22.344,73.713,20.932,73.48,19.538ZM12.904,57.529L9.841,56.613L15.521,50.835L16.306,53.821L12.904,57.529ZM24.369,54.174L19.564,52.828L18.289,47.997L21.789,44.44L26.573,45.755L27.862,50.637L24.369,54.174ZM27.429,42.437L24.604,41.662L29.919,36.27C30.372,37.025,30.858,37.753,31.385,38.451L27.429,42.437ZM27.429,42.437"/>
</g>
  <g id="Medium-M" transform="matrix(1.0,0.0,0.0,1.0,1710.9324014136903,1055.5400390625)">  <path stroke-linecap="butt" fill-rule="nonzero" stroke-opacity="1" stroke-dasharray="none" stroke-width="1px" stroke="none" fill-opacity="1" stroke-miterlimit="4" stroke-linejoin="miter" fill="#000000" d="M73.48,19.538L73.282,18.541L73.027,17.545C73.027,17.377,72.926,17.206,72.879,17.035L72.731,16.518C72.701,16.437,72.676,16.354,72.654,16.27L72.564,15.968L72.379,15.464C71.892,14.123,71.278,12.831,70.547,11.606C66.864,5.301,60.445,1.081,53.197,0.198C51.771,0.013,50.332,-0.044,48.896,0.03C47.457,0.128,46.03,0.361,44.635,0.728C41.815,1.438,39.147,2.653,36.76,4.315C27.639,10.776,24.131,22.644,28.275,33.026L0,62.022L2.892,69.99L8.16,70.46L4.281,68.547L3.355,62.927L7.106,59.334L12.166,60.528L14.132,65.897L11.918,69.175L15.461,66.692L18.474,66.913L15.786,65.598L14.85,59.7L18.699,56.177L23.718,57.539L25.48,62.649L21.789,67.769L27.842,63.276L26.651,56.714L30.298,53.013L36.988,54.358L40.521,49.07L36.203,51.389L31.153,49.718L29.865,44.853L33.613,41.051L33.811,41.249L34.599,41.967C36.712,43.828,39.151,45.28,41.793,46.252L42.283,46.43L42.531,46.52L42.776,46.587C43.111,46.688,43.437,46.799,43.759,46.876L44.745,47.128L45.729,47.316C49.822,47.983,54.016,47.473,57.834,45.853C57.51,45.945,57.182,46.023,56.851,46.088C55.237,46.463,53.586,46.656,51.929,46.665C51.281,46.678,50.61,46.668,49.959,46.587C48.655,46.482,47.362,46.266,46.094,45.94C41.057,44.624,36.647,41.568,33.646,37.314C32.911,36.268,32.268,35.161,31.724,34.005C31.182,32.856,30.744,31.66,30.415,30.432C30.077,29.206,29.85,27.951,29.737,26.684C29.639,25.422,29.639,24.155,29.737,22.893C29.838,21.635,30.046,20.39,30.365,19.175C30.696,17.96,31.125,16.774,31.647,15.629C32.16,14.505,32.771,13.428,33.465,12.408C34.882,10.343,36.662,8.554,38.719,7.127C42.834,4.237,47.854,2.93,52.855,3.446C56.603,3.815,60.19,5.191,63.236,7.428L63.974,7.999L64.706,8.603L65.404,9.24C65.628,9.462,65.847,9.69,66.075,9.918C69.664,13.687,71.811,18.601,72.138,23.795C72.312,26.429,72.035,29.073,71.319,31.613C70.95,32.905,70.47,34.16,69.88,35.361L69.782,35.592L69.665,35.821L69.437,36.267L69.192,36.706L68.947,37.142L68.403,38.001C68.229,38.29,68.031,38.572,67.843,38.847L68.524,38.092C68.729,37.834,68.957,37.562,69.161,37.293L69.467,36.884C69.567,36.747,69.675,36.616,69.762,36.478L70.047,36.049L70.195,35.841L70.332,35.619C71.081,34.445,71.711,33.203,72.225,31.905C73.247,29.309,73.786,26.548,73.815,23.758C73.825,22.344,73.713,20.932,73.48,19.538ZM12.904,57.529L9.841,56.613L15.521,50.835L16.306,53.821L12.904,57.529ZM24.369,54.174L19.564,52.828L18.289,47.997L21.789,44.44L26.573,45.755L27.862,50.637L24.369,54.174ZM27.429,42.437L24.604,41.662L29.919,36.27C30.372,37.025,30.858,37.753,31.385,38.451L27.429,42.437ZM27.429,42.437"/>
</g>
  <g id="Regular-M" transform="matrix(1.0,0.0,0.0,1.0,1414.2224014136902,1055.5400390625)">  <path stroke-linejoin="miter" fill-opacity="1" stroke-linecap="butt" stroke-width="1px" stroke="none" fill="#000000" fill-rule="nonzero" stroke-opacity="1" stroke-dasharray="none" stroke-miterlimit="4" d="M73.48,19.538L73.282,18.541L73.027,17.545C73.027,17.377,72.926,17.206,72.879,17.035L72.731,16.518C72.701,16.437,72.676,16.354,72.654,16.27L72.564,15.968L72.379,15.464C71.892,14.123,71.278,12.831,70.547,11.606C66.864,5.301,60.445,1.081,53.197,0.198C51.771,0.013,50.332,-0.044,48.896,0.03C47.457,0.128,46.03,0.361,44.635,0.728C41.815,1.438,39.147,2.653,36.76,4.315C27.639,10.776,24.131,22.644,28.275,33.026L0,62.022L2.892,69.99L8.16,70.46L4.281,68.547L3.355,62.927L7.106,59.334L12.166,60.528L14.132,65.897L11.918,69.175L15.461,66.692L18.474,66.913L15.786,65.598L14.85,59.7L18.699,56.177L23.718,57.539L25.48,62.649L21.789,67.769L27.842,63.276L26.651,56.714L30.298,53.013L36.988,54.358L40.521,49.07L36.203,51.389L31.153,49.718L29.865,44.853L33.613,41.051L33.811,41.249L34.599,41.967C36.712,43.828,39.151,45.28,41.793,46.252L42.283,46.43L42.531,46.52L42.776,46.587C43.111,46.688,43.437,46.799,43.759,46.876L44.745,47.128L45.729,47.316C49.822,47.983,54.016,47.473,57.834,45.853C57.51,45.945,57.182,46.023,56.851,46.088C55.237,46.463,53.586,46.656,51.929,46.665C51.281,46.678,50.61,46.668,49.959,46.587C48.655,46.482,47.362,46.266,46.094,45.94C41.057,44.624,36.647,41.568,33.646,37.314C32.911,36.268,32.268,35.161,31.724,34.005C31.182,32.856,30.744,31.66,30.415,30.432C30.077,29.206,29.85,27.951,29.737,26.684C29.639,25.422,29.639,24.155,29.737,22.893C29.838,21.635,30.046,20.39,30.365,19.175C30.696,17.96,31.125,16.774,31.647,15.629C32.16,14.505,32.771,13.428,33.465,12.408C34.882,10.343,36.662,8.554,38.719,7.127C42.834,4.237,47.854,2.93,52.855,3.446C56.603,3.815,60.19,5.191,63.236,7.428L63.974,7.999L64.706,8.603L65.404,9.24C65.628,9.462,65.847,9.69,66.075,9.918C69.664,13.687,71.811,18.601,72.138,23.795C72.312,26.429,72.035,29.073,71.319,31.613C70.95,32.905,70.47,34.16,69.88,35.361L69.782,35.592L69.665,35.821L69.437,36.267L69.192,36.706L68.947,37.142L68.403,38.001C68.229,38.29,68.031,38.572,67.843,38.847L68.524,38.092C68.729,37.834,68.957,37.562,69.161,37.293L69.467,36.884C69.567,36.747,69.675,36.616,69.762,36.478L70.047,36.049L70.195,35.841L70.332,35.619C71.081,34.445,71.711,33.203,72.225,31.905C73.247,29.309,73.786,26.548,73.815,23.758C73.825,22.344,73.713,20.932,73.48,19.538ZM12.904,57.529L9.841,56.613L15.521,50.835L16.306,53.821L12.904,57.529ZM24.369,54.174L19.564,52.828L18.289,47.997L21.789,44.44L26.573,45.755L27.862,50.637L24.369,54.174ZM27.429,42.437L24.604,41.662L29.919,36.27C30.372,37.025,30.858,37.753,31.385,38.451L27.429,42.437ZM27.429,42.437"/>
</g>
  <g id="Light-M" transform="matrix(1.0,0.0,0.0,1.0,1117.5124014136904,1055.5400390625)">  <path stroke-linejoin="miter" fill="#000000" stroke-width="1px" fill-opacity="1" fill-rule="nonzero" stroke="none" stroke-miterlimit="4" stroke-dasharray="none" stroke-linecap="butt" stroke-opacity="1" d="M73.48,19.538L73.282,18.541L73.027,17.545C73.027,17.377,72.926,17.206,72.879,17.035L72.731,16.518C72.701,16.437,72.676,16.354,72.654,16.27L72.564,15.968L72.379,15.464C71.892,14.123,71.278,12.831,70.547,11.606C66.864,5.301,60.445,1.081,53.197,0.198C51.771,0.013,50.332,-0.044,48.896,0.03C47.457,0.128,46.03,0.361,44.635,0.728C41.815,1.438,39.147,2.653,36.76,4.315C27.639,10.776,24.131,22.644,28.275,33.026L0,62.022L2.892,69.99L8.16,70.46L4.281,68.547L3.355,62.927L7.106,59.334L12.166,60.528L14.132,65.897L11.918,69.175L15.461,66.692L18.474,66.913L15.786,65.598L14.85,59.7L18.699,56.177L23.718,57.539L25.48,62.649L21.789,67.769L27.842,63.276L26.651,56.714L30.298,53.013L36.988,54.358L40.521,49.07L36.203,51.389L31.153,49.718L29.865,44.853L33.613,41.051L33.811,41.249L34.599,41.967C36.712,43.828,39.151,45.28,41.793,46.252L42.283,46.43L42.531,46.52L42.776,46.587C43.111,46.688,43.437,46.799,43.759,46.876L44.745,47.128L45.729,47.316C49.822,47.983,54.016,47.473,57.834,45.853C57.51,45.945,57.182,46.023,56.851,46.088C55.237,46.463,53.586,46.656,51.929,46.665C51.281,46.678,50.61,46.668,49.959,46.587C48.655,46.482,47.362,46.266,46.094,45.94C41.057,44.624,36.647,41.568,33.646,37.314C32.911,36.268,32.268,35.161,31.724,34.005C31.182,32.856,30.744,31.66,30.415,30.432C30.077,29.206,29.85,27.951,29.737,26.684C29.639,25.422,29.639,24.155,29.737,22.893C29.838,21.635,30.046,20.39,30.365,19.175C30.696,17.96,31.125,16.774,31.647,15.629C32.16,14.505,32.771,13.428,33.465,12.408C34.882,10.343,36.662,8.554,38.719,7.127C42.834,4.237,47.854,2.93,52.855,3.446C56.603,3.815,60.19,5.191,63.236,7.428L63.974,7.999L64.706,8.603L65.404,9.24C65.628,9.462,65.847,9.69,66.075,9.918C69.664,13.687,71.811,18.601,72.138,23.795C72.312,26.429,72.035,29.073,71.319,31.613C70.95,32.905,70.47,34.16,69.88,35.361L69.782,35.592L69.665,35.821L69.437,36.267L69.192,36.706L68.947,37.142L68.403,38.001C68.229,38.29,68.031,38.572,67.843,38.847L68.524,38.092C68.729,37.834,68.957,37.562,69.161,37.293L69.467,36.884C69.567,36.747,69.675,36.616,69.762,36.478L70.047,36.049L70.195,35.841L70.332,35.619C71.081,34.445,71.711,33.203,72.225,31.905C73.247,29.309,73.786,26.548,73.815,23.758C73.825,22.344,73.713,20.932,73.48,19.538ZM12.904,57.529L9.841,56.613L15.521,50.835L16.306,53.821L12.904,57.529ZM24.369,54.174L19.564,52.828L18.289,47.997L21.789,44.44L26.573,45.755L27.862,50.637L24.369,54.174ZM27.429,42.437L24.604,41.662L29.919,36.27C30.372,37.025,30.858,37.753,31.385,38.451L27.429,42.437ZM27.429,42.437"/>
</g>
  <g id="Thin-M" transform="matrix(1.0,0.0,0.0,1.0,820.8024014136905,1055.5400390625)">  <path fill-opacity="1" fill-rule="nonzero" stroke-width="1px" stroke-opacity="1" stroke-miterlimit="4" stroke-dasharray="none" stroke-linecap="butt" fill="#000000" stroke-linejoin="miter" stroke="none" d="M73.48,19.538L73.282,18.541L73.027,17.545C73.027,17.377,72.926,17.206,72.879,17.035L72.731,16.518C72.701,16.437,72.676,16.354,72.654,16.27L72.564,15.968L72.379,15.464C71.892,14.123,71.278,12.831,70.547,11.606C66.864,5.301,60.445,1.081,53.197,0.198C51.771,0.013,50.332,-0.044,48.896,0.03C47.457,0.128,46.03,0.361,44.635,0.728C41.815,1.438,39.147,2.653,36.76,4.315C27.639,10.776,24.131,22.644,28.275,33.026L0,62.022L2.892,69.99L8.16,70.46L4.281,68.547L3.355,62.927L7.106,59.334L12.166,60.528L14.132,65.897L11.918,69.175L15.461,66.692L18.474,66.913L15.786,65.598L14.85,59.7L18.699,56.177L23.718,57.539L25.48,62.649L21.789,67.769L27.842,63.276L26.651,56.714L30.298,53.013L36.988,54.358L40.521,49.07L36.203,51.389L31.153,49.718L29.865,44.853L33.613,41.051L33.811,41.249L34.599,41.967C36.712,43.828,39.151,45.28,41.793,46.252L42.283,46.43L42.531,46.52L42.776,46.587C43.111,46.688,43.437,46.799,43.759,46.876L44.745,47.128L45.729,47.316C49.822,47.983,54.016,47.473,57.834,45.853C57.51,45.945,57.182,46.023,56.851,46.088C55.237,46.463,53.586,46.656,51.929,46.665C51.281,46.678,50.61,46.668,49.959,46.587C48.655,46.482,47.362,46.266,46.094,45.94C41.057,44.624,36.647,41.568,33.646,37.314C32.911,36.268,32.268,35.161,31.724,34.005C31.182,32.856,30.744,31.66,30.415,30.432C30.077,29.206,29.85,27.951,29.737,26.684C29.639,25.422,29.639,24.155,29.737,22.893C29.838,21.635,30.046,20.39,30.365,19.175C30.696,17.96,31.125,16.774,31.647,15.629C32.16,14.505,32.771,13.428,33.465,12.408C34.882,10.343,36.662,8.554,38.719,7.127C42.834,4.237,47.854,2.93,52.855,3.446C56.603,3.815,60.19,5.191,63.236,7.428L63.974,7.999L64.706,8.603L65.404,9.24C65.628,9.462,65.847,9.69,66.075,9.918C69.664,13.687,71.811,18.601,72.138,23.795C72.312,26.429,72.035,29.073,71.319,31.613C70.95,32.905,70.47,34.16,69.88,35.361L69.782,35.592L69.665,35.821L69.437,36.267L69.192,36.706L68.947,37.142L68.403,38.001C68.229,38.29,68.031,38.572,67.843,38.847L68.524,38.092C68.729,37.834,68.957,37.562,69.161,37.293L69.467,36.884C69.567,36.747,69.675,36.616,69.762,36.478L70.047,36.049L70.195,35.841L70.332,35.619C71.081,34.445,71.711,33.203,72.225,31.905C73.247,29.309,73.786,26.548,73.815,23.758C73.825,22.344,73.713,20.932,73.48,19.538ZM12.904,57.529L9.841,56.613L15.521,50.835L16.306,53.821L12.904,57.529ZM24.369,54.174L19.564,52.828L18.289,47.997L21.789,44.44L26.573,45.755L27.862,50.637L24.369,54.174ZM27.429,42.437L24.604,41.662L29.919,36.27C30.372,37.025,30.858,37.753,31.385,38.451L27.429,42.437ZM27.429,42.437"/>
</g>
  <g id="Ultralight-M" transform="matrix(1.0,0.0,0.0,1.0,524.0924014136905,1055.5400390625)">  <path stroke-dasharray="none" fill-opacity="1" stroke-width="1px" stroke-opacity="1" fill="#000000" stroke="none" stroke-linejoin="miter" fill-rule="nonzero" stroke-miterlimit="4" stroke-linecap="butt" d="M73.48,19.538L73.282,18.541L73.027,17.545C73.027,17.377,72.926,17.206,72.879,17.035L72.731,16.518C72.701,16.437,72.676,16.354,72.654,16.27L72.564,15.968L72.379,15.464C71.892,14.123,71.278,12.831,70.547,11.606C66.864,5.301,60.445,1.081,53.197,0.198C51.771,0.013,50.332,-0.044,48.896,0.03C47.457,0.128,46.03,0.361,44.635,0.728C41.815,1.438,39.147,2.653,36.76,4.315C27.639,10.776,24.131,22.644,28.275,33.026L0,62.022L2.892,69.99L8.16,70.46L4.281,68.547L3.355,62.927L7.106,59.334L12.166,60.528L14.132,65.897L11.918,69.175L15.461,66.692L18.474,66.913L15.786,65.598L14.85,59.7L18.699,56.177L23.718,57.539L25.48,62.649L21.789,67.769L27.842,63.276L26.651,56.714L30.298,53.013L36.988,54.358L40.521,49.07L36.203,51.389L31.153,49.718L29.865,44.853L33.613,41.051L33.811,41.249L34.599,41.967C36.712,43.828,39.151,45.28,41.793,46.252L42.283,46.43L42.531,46.52L42.776,46.587C43.111,46.688,43.437,46.799,43.759,46.876L44.745,47.128L45.729,47.316C49.822,47.983,54.016,47.473,57.834,45.853C57.51,45.945,57.182,46.023,56.851,46.088C55.237,46.463,53.586,46.656,51.929,46.665C51.281,46.678,50.61,46.668,49.959,46.587C48.655,46.482,47.362,46.266,46.094,45.94C41.057,44.624,36.647,41.568,33.646,37.314C32.911,36.268,32.268,35.161,31.724,34.005C31.182,32.856,30.744,31.66,30.415,30.432C30.077,29.206,29.85,27.951,29.737,26.684C29.639,25.422,29.639,24.155,29.737,22.893C29.838,21.635,30.046,20.39,30.365,19.175C30.696,17.96,31.125,16.774,31.647,15.629C32.16,14.505,32.771,13.428,33.465,12.408C34.882,10.343,36.662,8.554,38.719,7.127C42.834,4.237,47.854,2.93,52.855,3.446C56.603,3.815,60.19,5.191,63.236,7.428L63.974,7.999L64.706,8.603L65.404,9.24C65.628,9.462,65.847,9.69,66.075,9.918C69.664,13.687,71.811,18.601,72.138,23.795C72.312,26.429,72.035,29.073,71.319,31.613C70.95,32.905,70.47,34.16,69.88,35.361L69.782,35.592L69.665,35.821L69.437,36.267L69.192,36.706L68.947,37.142L68.403,38.001C68.229,38.29,68.031,38.572,67.843,38.847L68.524,38.092C68.729,37.834,68.957,37.562,69.161,37.293L69.467,36.884C69.567,36.747,69.675,36.616,69.762,36.478L70.047,36.049L70.195,35.841L70.332,35.619C71.081,34.445,71.711,33.203,72.225,31.905C73.247,29.309,73.786,26.548,73.815,23.758C73.825,22.344,73.713,20.932,73.48,19.538ZM12.904,57.529L9.841,56.613L15.521,50.835L16.306,53.821L12.904,57.529ZM24.369,54.174L19.564,52.828L18.289,47.997L21.789,44.44L26.573,45.755L27.862,50.637L24.369,54.174ZM27.429,42.437L24.604,41.662L29.919,36.27C30.372,37.025,30.858,37.753,31.385,38.451L27.429,42.437ZM27.429,42.437"/>
</g>
  <g id="Black-S" transform="matrix(1.0,0.0,0.0,1.0,2905.7813503069196,633.1849448242187)">  <path stroke-linejoin="miter" stroke="none" stroke-linecap="butt" fill-opacity="1" stroke-width="1px" stroke-dasharray="none" stroke-opacity="1" fill="#000000" fill-rule="nonzero" stroke-miterlimit="4" d="M57.535,15.298L57.38,14.518L57.18,13.737C57.18,13.606,57.101,13.472,57.064,13.338L56.949,12.933C56.925,12.87,56.905,12.805,56.888,12.739L56.817,12.503L56.673,12.109C56.291,11.058,55.811,10.047,55.238,9.087C52.354,4.151,47.329,0.846,41.653,0.155C40.537,0.01,39.41,-0.034,38.285,0.024C37.159,0.1,36.041,0.283,34.949,0.57C32.741,1.126,30.652,2.077,28.783,3.379C21.641,8.438,18.895,17.73,22.139,25.859L0,48.563L2.265,54.802L6.389,55.17L3.352,53.673L2.627,49.272L5.564,46.459L9.526,47.394L11.066,51.597L9.332,54.164L12.106,52.22L14.465,52.393L12.361,51.363L11.628,46.745L14.641,43.986L18.571,45.053L19.951,49.054L17.061,53.063L21.8,49.545L20.867,44.407L23.723,41.509L28.962,42.562L31.728,38.422L28.347,40.237L24.393,38.929L23.384,35.12L26.319,32.143L26.474,32.298L27.091,32.86C28.745,34.317,30.655,35.454,32.724,36.215L33.107,36.355L33.302,36.425L33.494,36.478C33.756,36.557,34.011,36.643,34.263,36.704L35.036,36.901L35.805,37.048C39.011,37.571,42.294,37.172,45.284,35.903C45.03,35.975,44.774,36.036,44.514,36.087C43.251,36.38,41.958,36.532,40.66,36.538C40.153,36.549,39.628,36.541,39.118,36.478C38.097,36.396,37.084,36.226,36.092,35.971C32.148,34.94,28.695,32.548,26.345,29.217C25.77,28.398,25.266,27.531,24.84,26.626C24.415,25.726,24.073,24.79,23.815,23.828C23.55,22.868,23.372,21.886,23.284,20.894C23.208,19.906,23.208,18.913,23.284,17.925C23.363,16.94,23.526,15.965,23.776,15.014C24.035,14.063,24.371,13.134,24.779,12.237C25.181,11.357,25.659,10.514,26.203,9.715C27.313,8.099,28.707,6.698,30.317,5.58C33.539,3.317,37.469,2.294,41.385,2.698C44.32,2.987,47.128,4.064,49.514,5.817L50.092,6.263L50.665,6.736L51.211,7.235C51.387,7.409,51.558,7.587,51.736,7.766C54.547,10.717,56.228,14.564,56.484,18.632C56.62,20.694,56.403,22.764,55.843,24.753C55.554,25.764,55.178,26.747,54.716,27.688L54.639,27.869L54.548,28.047L54.369,28.397L54.177,28.741L53.985,29.083L53.56,29.755C53.423,29.981,53.268,30.202,53.121,30.417L53.654,29.826C53.815,29.624,53.993,29.411,54.153,29.201L54.393,28.88C54.471,28.773,54.555,28.67,54.624,28.562L54.847,28.226L54.963,28.063L55.07,27.89C55.656,26.97,56.15,25.998,56.552,24.982C57.353,22.949,57.775,20.787,57.797,18.603C57.805,17.496,57.717,16.39,57.535,15.298ZM10.104,45.045L7.705,44.328L12.153,39.804L12.768,42.142L10.104,45.045ZM19.081,42.418L15.319,41.364L14.321,37.581L17.061,34.797L20.807,35.826L21.816,39.649L19.081,42.418ZM21.477,33.228L19.265,32.621L23.426,28.399C23.781,28.991,24.162,29.561,24.574,30.107L21.477,33.228ZM21.477,33.228"/>
</g>
  <g id="Heavy-S" transform="matrix(1.0,0.0,0.0,1.0,2609.0713503069196,633.1849448242187)">  <path fill-rule="nonzero" fill="#000000" stroke="none" fill-opacity="1" stroke-dasharray="none" stroke-linejoin="miter" stroke-opacity="1" stroke-linecap="butt" stroke-width="1px" stroke-miterlimit="4" d="M57.535,15.298L57.38,14.518L57.18,13.737C57.18,13.606,57.101,13.472,57.064,13.338L56.949,12.933C56.925,12.87,56.905,12.805,56.888,12.739L56.817,12.503L56.673,12.109C56.291,11.058,55.811,10.047,55.238,9.087C52.354,4.151,47.329,0.846,41.653,0.155C40.537,0.01,39.41,-0.034,38.285,0.024C37.159,0.1,36.041,0.283,34.949,0.57C32.741,1.126,30.652,2.077,28.783,3.379C21.641,8.438,18.895,17.73,22.139,25.859L0,48.563L2.265,54.802L6.389,55.17L3.352,53.673L2.627,49.272L5.564,46.459L9.526,47.394L11.066,51.597L9.332,54.164L12.106,52.22L14.465,52.393L12.361,51.363L11.628,46.745L14.641,43.986L18.571,45.053L19.951,49.054L17.061,53.063L21.8,49.545L20.867,44.407L23.723,41.509L28.962,42.562L31.728,38.422L28.347,40.237L24.393,38.929L23.384,35.12L26.319,32.143L26.474,32.298L27.091,32.86C28.745,34.317,30.655,35.454,32.724,36.215L33.107,36.355L33.302,36.425L33.494,36.478C33.756,36.557,34.011,36.643,34.263,36.704L35.036,36.901L35.805,37.048C39.011,37.571,42.294,37.172,45.284,35.903C45.03,35.975,44.774,36.036,44.514,36.087C43.251,36.38,41.958,36.532,40.66,36.538C40.153,36.549,39.628,36.541,39.118,36.478C38.097,36.396,37.084,36.226,36.092,35.971C32.148,34.94,28.695,32.548,26.345,29.217C25.77,28.398,25.266,27.531,24.84,26.626C24.415,25.726,24.073,24.79,23.815,23.828C23.55,22.868,23.372,21.886,23.284,20.894C23.208,19.906,23.208,18.913,23.284,17.925C23.363,16.94,23.526,15.965,23.776,15.014C24.035,14.063,24.371,13.134,24.779,12.237C25.181,11.357,25.659,10.514,26.203,9.715C27.313,8.099,28.707,6.698,30.317,5.58C33.539,3.317,37.469,2.294,41.385,2.698C44.32,2.987,47.128,4.064,49.514,5.817L50.092,6.263L50.665,6.736L51.211,7.235C51.387,7.409,51.558,7.587,51.736,7.766C54.547,10.717,56.228,14.564,56.484,18.632C56.62,20.694,56.403,22.764,55.843,24.753C55.554,25.764,55.178,26.747,54.716,27.688L54.639,27.869L54.548,28.047L54.369,28.397L54.177,28.741L53.985,29.083L53.56,29.755C53.423,29.981,53.268,30.202,53.121,30.417L53.654,29.826C53.815,29.624,53.993,29.411,54.153,29.201L54.393,28.88C54.471,28.773,54.555,28.67,54.624,28.562L54.847,28.226L54.963,28.063L55.07,27.89C55.656,26.97,56.15,25.998,56.552,24.982C57.353,22.949,57.775,20.787,57.797,18.603C57.805,17.496,57.717,16.39,57.535,15.298ZM10.104,45.045L7.705,44.328L12.153,39.804L12.768,42.142L10.104,45.045ZM19.081,42.418L15.319,41.364L14.321,37.581L17.061,34.797L20.807,35.826L21.816,39.649L19.081,42.418ZM21.477,33.228L19.265,32.621L23.426,28.399C23.781,28.991,24.162,29.561,24.574,30.107L21.477,33.228ZM21.477,33.228"/>
</g>
  <g id="Bold-S" transform="matrix(1.0,0.0,0.0,1.0,2312.3613503069196,633.1849448242187)">  <path stroke-miterlimit="4" fill="#000000" stroke-linecap="butt" fill-opacity="1" fill-rule="nonzero" stroke-linejoin="miter" stroke-dasharray="none" stroke-width="1px" stroke="none" stroke-opacity="1" d="M57.535,15.298L57.38,14.518L57.18,13.737C57.18,13.606,57.101,13.472,57.064,13.338L56.949,12.933C56.925,12.87,56.905,12.805,56.888,12.739L56.817,12.503L56.673,12.109C56.291,11.058,55.811,10.047,55.238,9.087C52.354,4.151,47.329,0.846,41.653,0.155C40.537,0.01,39.41,-0.034,38.285,0.024C37.159,0.1,36.041,0.283,34.949,0.57C32.741,1.126,30.652,2.077,28.783,3.379C21.641,8.438,18.895,17.73,22.139,25.859L0,48.563L2.265,54.802L6.389,55.17L3.352,53.673L2.627,49.272L5.564,46.459L9.526,47.394L11.066,51.597L9.332,54.164L12.106,52.22L14.465,52.393L12.361,51.363L11.628,46.745L14.641,43.986L18.571,45.053L19.951,49.054L17.061,53.063L21.8,49.545L20.867,44.407L23.723,41.509L28.962,42.562L31.728,38.422L28.347,40.237L24.393,38.929L23.384,35.12L26.319,32.143L26.474,32.298L27.091,32.86C28.745,34.317,30.655,35.454,32.724,36.215L33.107,36.355L33.302,36.425L33.494,36.478C33.756,36.557,34.011,36.643,34.263,36.704L35.036,36.901L35.805,37.048C39.011,37.571,42.294,37.172,45.284,35.903C45.03,35.975,44.774,36.036,44.514,36.087C43.251,36.38,41.958,36.532,40.66,36.538C40.153,36.549,39.628,36.541,39.118,36.478C38.097,36.396,37.084,36.226,36.092,35.971C32.148,34.94,28.695,32.548,26.345,29.217C25.77,28.398,25.266,27.531,24.84,26.626C24.415,25.726,24.073,24.79,23.815,23.828C23.55,22.868,23.372,21.886,23.284,20.894C23.208,19.906,23.208,18.913,23.284,17.925C23.363,16.94,23.526,15.965,23.776,15.014C24.035,14.063,24.371,13.134,24.779,12.237C25.181,11.357,25.659,10.514,26.203,9.715C27.313,8.099,28.707,6.698,30.317,5.58C33.539,3.317,37.469,2.294,41.385,2.698C44.32,2.987,47.128,4.064,49.514,5.817L50.092,6.263L50.665,6.736L51.211,7.235C51.387,7.409,51.558,7.587,51.736,7.766C54.547,10.717,56.228,14.564,56.484,18.632C56.62,20.694,56.403,22.764,55.843,24.753C55.554,25.764,55.178,26.747,54.716,27.688L54.639,27.869L54.548,28.047L54.369,28.397L54.177,28.741L53.985,29.083L53.56,29.755C53.423,29.981,53.268,30.202,53.121,30.417L53.654,29.826C53.815,29.624,53.993,29.411,54.153,29.201L54.393,28.88C54.471,28.773,54.555,28.67,54.624,28.562L54.847,28.226L54.963,28.063L55.07,27.89C55.656,26.97,56.15,25.998,56.552,24.982C57.353,22.949,57.775,20.787,57.797,18.603C57.805,17.496,57.717,16.39,57.535,15.298ZM10.104,45.045L7.705,44.328L12.153,39.804L12.768,42.142L10.104,45.045ZM19.081,42.418L15.319,41.364L14.321,37.581L17.061,34.797L20.807,35.826L21.816,39.649L19.081,42.418ZM21.477,33.228L19.265,32.621L23.426,28.399C23.781,28.991,24.162,29.561,24.574,30.107L21.477,33.228ZM21.477,33.228"/>
</g>
  <g id="Semibold-S" transform="matrix(1.0,0.0,0.0,1.0,2015.6513503069195,633.1849448242187)">  <path fill-rule="nonzero" fill-opacity="1" stroke="none" stroke-linejoin="miter" stroke-width="1px" stroke-miterlimit="4" stroke-opacity="1" stroke-dasharray="none" stroke-linecap="butt" fill="#000000" d="M57.535,15.298L57.38,14.518L57.18,13.737C57.18,13.606,57.101,13.472,57.064,13.338L56.949,12.933C56.925,12.87,56.905,12.805,56.888,12.739L56.817,12.503L56.673,12.109C56.291,11.058,55.811,10.047,55.238,9.087C52.354,4.151,47.329,0.846,41.653,0.155C40.537,0.01,39.41,-0.034,38.285,0.024C37.159,0.1,36.041,0.283,34.949,0.57C32.741,1.126,30.652,2.077,28.783,3.379C21.641,8.438,18.895,17.73,22.139,25.859L0,48.563L2.265,54.802L6.389,55.17L3.352,53.673L2.627,49.272L5.564,46.459L9.526,47.394L11.066,51.597L9.332,54.164L12.106,52.22L14.465,52.393L12.361,51.363L11.628,46.745L14.641,43.986L18.571,45.053L19.951,49.054L17.061,53.063L21.8,49.545L20.867,44.407L23.723,41.509L28.962,42.562L31.728,38.422L28.347,40.237L24.393,38.929L23.384,35.12L26.319,32.143L26.474,32.298L27.091,32.86C28.745,34.317,30.655,35.454,32.724,36.215L33.107,36.355L33.302,36.425L33.494,36.478C33.756,36.557,34.011,36.643,34.263,36.704L35.036,36.901L35.805,37.048C39.011,37.571,42.294,37.172,45.284,35.903C45.03,35.975,44.774,36.036,44.514,36.087C43.251,36.38,41.958,36.532,40.66,36.538C40.153,36.549,39.628,36.541,39.118,36.478C38.097,36.396,37.084,36.226,36.092,35.971C32.148,34.94,28.695,32.548,26.345,29.217C25.77,28.398,25.266,27.531,24.84,26.626C24.415,25.726,24.073,24.79,23.815,23.828C23.55,22.868,23.372,21.886,23.284,20.894C23.208,19.906,23.208,18.913,23.284,17.925C23.363,16.94,23.526,15.965,23.776,15.014C24.035,14.063,24.371,13.134,24.779,12.237C25.181,11.357,25.659,10.514,26.203,9.715C27.313,8.099,28.707,6.698,30.317,5.58C33.539,3.317,37.469,2.294,41.385,2.698C44.32,2.987,47.128,4.064,49.514,5.817L50.092,6.263L50.665,6.736L51.211,7.235C51.387,7.409,51.558,7.587,51.736,7.766C54.547,10.717,56.228,14.564,56.484,18.632C56.62,20.694,56.403,22.764,55.843,24.753C55.554,25.764,55.178,26.747,54.716,27.688L54.639,27.869L54.548,28.047L54.369,28.397L54.177,28.741L53.985,29.083L53.56,29.755C53.423,29.981,53.268,30.202,53.121,30.417L53.654,29.826C53.815,29.624,53.993,29.411,54.153,29.201L54.393,28.88C54.471,28.773,54.555,28.67,54.624,28.562L54.847,28.226L54.963,28.063L55.07,27.89C55.656,26.97,56.15,25.998,56.552,24.982C57.353,22.949,57.775,20.787,57.797,18.603C57.805,17.496,57.717,16.39,57.535,15.298ZM10.104,45.045L7.705,44.328L12.153,39.804L12.768,42.142L10.104,45.045ZM19.081,42.418L15.319,41.364L14.321,37.581L17.061,34.797L20.807,35.826L21.816,39.649L19.081,42.418ZM21.477,33.228L19.265,32.621L23.426,28.399C23.781,28.991,24.162,29.561,24.574,30.107L21.477,33.228ZM21.477,33.228"/>
</g>
  <g id="Medium-S" transform="matrix(1.0,0.0,0.0,1.0,1718.9413503069195,633.1849448242187)">  <path stroke-linecap="butt" fill-rule="nonzero" stroke-opacity="1" stroke-dasharray="none" stroke-width="1px" stroke="none" fill-opacity="1" stroke-miterlimit="4" stroke-linejoin="miter" fill="#000000" d="M57.535,15.298L57.38,14.518L57.18,13.737C57.18,13.606,57.101,13.472,57.064,13.338L56.949,12.933C56.925,12.87,56.905,12.805,56.888,12.739L56.817,12.503L56.673,12.109C56.291,11.058,55.811,10.047,55.238,9.087C52.354,4.151,47.329,0.846,41.653,0.155C40.537,0.01,39.41,-0.034,38.285,0.024C37.159,0.1,36.041,0.283,34.949,0.57C32.741,1.126,30.652,2.077,28.783,3.379C21.641,8.438,18.895,17.73,22.139,25.859L0,48.563L2.265,54.802L6.389,55.17L3.352,53.673L2.627,49.272L5.564,46.459L9.526,47.394L11.066,51.597L9.332,54.164L12.106,52.22L14.465,52.393L12.361,51.363L11.628,46.745L14.641,43.986L18.571,45.053L19.951,49.054L17.061,53.063L21.8,49.545L20.867,44.407L23.723,41.509L28.962,42.562L31.728,38.422L28.347,40.237L24.393,38.929L23.384,35.12L26.319,32.143L26.474,32.298L27.091,32.86C28.745,34.317,30.655,35.454,32.724,36.215L33.107,36.355L33.302,36.425L33.494,36.478C33.756,36.557,34.011,36.643,34.263,36.704L35.036,36.901L35.805,37.048C39.011,37.571,42.294,37.172,45.284,35.903C45.03,35.975,44.774,36.036,44.514,36.087C43.251,36.38,41.958,36.532,40.66,36.538C40.153,36.549,39.628,36.541,39.118,36.478C38.097,36.396,37.084,36.226,36.092,35.971C32.148,34.94,28.695,32.548,26.345,29.217C25.77,28.398,25.266,27.531,24.84,26.626C24.415,25.726,24.073,24.79,23.815,23.828C23.55,22.868,23.372,21.886,23.284,20.894C23.208,19.906,23.208,18.913,23.284,17.925C23.363,16.94,23.526,15.965,23.776,15.014C24.035,14.063,24.371,13.134,24.779,12.237C25.181,11.357,25.659,10.514,26.203,9.715C27.313,8.099,28.707,6.698,30.317,5.58C33.539,3.317,37.469,2.294,41.385,2.698C44.32,2.987,47.128,4.064,49.514,5.817L50.092,6.263L50.665,6.736L51.211,7.235C51.387,7.409,51.558,7.587,51.736,7.766C54.547,10.717,56.228,14.564,56.484,18.632C56.62,20.694,56.403,22.764,55.843,24.753C55.554,25.764,55.178,26.747,54.716,27.688L54.639,27.869L54.548,28.047L54.369,28.397L54.177,28.741L53.985,29.083L53.56,29.755C53.423,29.981,53.268,30.202,53.121,30.417L53.654,29.826C53.815,29.624,53.993,29.411,54.153,29.201L54.393,28.88C54.471,28.773,54.555,28.67,54.624,28.562L54.847,28.226L54.963,28.063L55.07,27.89C55.656,26.97,56.15,25.998,56.552,24.982C57.353,22.949,57.775,20.787,57.797,18.603C57.805,17.496,57.717,16.39,57.535,15.298ZM10.104,45.045L7.705,44.328L12.153,39.804L12.768,42.142L10.104,45.045ZM19.081,42.418L15.319,41.364L14.321,37.581L17.061,34.797L20.807,35.826L21.816,39.649L19.081,42.418ZM21.477,33.228L19.265,32.621L23.426,28.399C23.781,28.991,24.162,29.561,24.574,30.107L21.477,33.228ZM21.477,33.228"/>
</g>
  <g id="Regular-S" transform="matrix(1.0,0.0,0.0,1.0,1422.2313503069195,633.1849448242187)">  <path stroke-linejoin="miter" fill-opacity="1" stroke-linecap="butt" stroke-width="1px" stroke="none" fill="#000000" fill-rule="nonzero" stroke-opacity="1" stroke-dasharray="none" stroke-miterlimit="4" d="M57.535,15.298L57.38,14.518L57.18,13.737C57.18,13.606,57.101,13.472,57.064,13.338L56.949,12.933C56.925,12.87,56.905,12.805,56.888,12.739L56.817,12.503L56.673,12.109C56.291,11.058,55.811,10.047,55.238,9.087C52.354,4.151,47.329,0.846,41.653,0.155C40.537,0.01,39.41,-0.034,38.285,0.024C37.159,0.1,36.041,0.283,34.949,0.57C32.741,1.126,30.652,2.077,28.783,3.379C21.641,8.438,18.895,17.73,22.139,25.859L0,48.563L2.265,54.802L6.389,55.17L3.352,53.673L2.627,49.272L5.564,46.459L9.526,47.394L11.066,51.597L9.332,54.164L12.106,52.22L14.465,52.393L12.361,51.363L11.628,46.745L14.641,43.986L18.571,45.053L19.951,49.054L17.061,53.063L21.8,49.545L20.867,44.407L23.723,41.509L28.962,42.562L31.728,38.422L28.347,40.237L24.393,38.929L23.384,35.12L26.319,32.143L26.474,32.298L27.091,32.86C28.745,34.317,30.655,35.454,32.724,36.215L33.107,36.355L33.302,36.425L33.494,36.478C33.756,36.557,34.011,36.643,34.263,36.704L35.036,36.901L35.805,37.048C39.011,37.571,42.294,37.172,45.284,35.903C45.03,35.975,44.774,36.036,44.514,36.087C43.251,36.38,41.958,36.532,40.66,36.538C40.153,36.549,39.628,36.541,39.118,36.478C38.097,36.396,37.084,36.226,36.092,35.971C32.148,34.94,28.695,32.548,26.345,29.217C25.77,28.398,25.266,27.531,24.84,26.626C24.415,25.726,24.073,24.79,23.815,23.828C23.55,22.868,23.372,21.886,23.284,20.894C23.208,19.906,23.208,18.913,23.284,17.925C23.363,16.94,23.526,15.965,23.776,15.014C24.035,14.063,24.371,13.134,24.779,12.237C25.181,11.357,25.659,10.514,26.203,9.715C27.313,8.099,28.707,6.698,30.317,5.58C33.539,3.317,37.469,2.294,41.385,2.698C44.32,2.987,47.128,4.064,49.514,5.817L50.092,6.263L50.665,6.736L51.211,7.235C51.387,7.409,51.558,7.587,51.736,7.766C54.547,10.717,56.228,14.564,56.484,18.632C56.62,20.694,56.403,22.764,55.843,24.753C55.554,25.764,55.178,26.747,54.716,27.688L54.639,27.869L54.548,28.047L54.369,28.397L54.177,28.741L53.985,29.083L53.56,29.755C53.423,29.981,53.268,30.202,53.121,30.417L53.654,29.826C53.815,29.624,53.993,29.411,54.153,29.201L54.393,28.88C54.471,28.773,54.555,28.67,54.624,28.562L54.847,28.226L54.963,28.063L55.07,27.89C55.656,26.97,56.15,25.998,56.552,24.982C57.353,22.949,57.775,20.787,57.797,18.603C57.805,17.496,57.717,16.39,57.535,15.298ZM10.104,45.045L7.705,44.328L12.153,39.804L12.768,42.142L10.104,45.045ZM19.081,42.418L15.319,41.364L14.321,37.581L17.061,34.797L20.807,35.826L21.816,39.649L19.081,42.418ZM21.477,33.228L19.265,32.621L23.426,28.399C23.781,28.991,24.162,29.561,24.574,30.107L21.477,33.228ZM21.477,33.228"/>
</g>
  <g id="Light-S" transform="matrix(1.0,0.0,0.0,1.0,1125.5213503069197,633.1849448242187)">  <path stroke-linejoin="miter" fill="#000000" stroke-width="1px" fill-opacity="1" fill-rule="nonzero" stroke="none" stroke-miterlimit="4" stroke-dasharray="none" stroke-linecap="butt" stroke-opacity="1" d="M57.535,15.298L57.38,14.518L57.18,13.737C57.18,13.606,57.101,13.472,57.064,13.338L56.949,12.933C56.925,12.87,56.905,12.805,56.888,12.739L56.817,12.503L56.673,12.109C56.291,11.058,55.811,10.047,55.238,9.087C52.354,4.151,47.329,0.846,41.653,0.155C40.537,0.01,39.41,-0.034,38.285,0.024C37.159,0.1,36.041,0.283,34.949,0.57C32.741,1.126,30.652,2.077,28.783,3.379C21.641,8.438,18.895,17.73,22.139,25.859L0,48.563L2.265,54.802L6.389,55.17L3.352,53.673L2.627,49.272L5.564,46.459L9.526,47.394L11.066,51.597L9.332,54.164L12.106,52.22L14.465,52.393L12.361,51.363L11.628,46.745L14.641,43.986L18.571,45.053L19.951,49.054L17.061,53.063L21.8,49.545L20.867,44.407L23.723,41.509L28.962,42.562L31.728,38.422L28.347,40.237L24.393,38.929L23.384,35.12L26.319,32.143L26.474,32.298L27.091,32.86C28.745,34.317,30.655,35.454,32.724,36.215L33.107,36.355L33.302,36.425L33.494,36.478C33.756,36.557,34.011,36.643,34.263,36.704L35.036,36.901L35.805,37.048C39.011,37.571,42.294,37.172,45.284,35.903C45.03,35.975,44.774,36.036,44.514,36.087C43.251,36.38,41.958,36.532,40.66,36.538C40.153,36.549,39.628,36.541,39.118,36.478C38.097,36.396,37.084,36.226,36.092,35.971C32.148,34.94,28.695,32.548,26.345,29.217C25.77,28.398,25.266,27.531,24.84,26.626C24.415,25.726,24.073,24.79,23.815,23.828C23.55,22.868,23.372,21.886,23.284,20.894C23.208,19.906,23.208,18.913,23.284,17.925C23.363,16.94,23.526,15.965,23.776,15.014C24.035,14.063,24.371,13.134,24.779,12.237C25.181,11.357,25.659,10.514,26.203,9.715C27.313,8.099,28.707,6.698,30.317,5.58C33.539,3.317,37.469,2.294,41.385,2.698C44.32,2.987,47.128,4.064,49.514,5.817L50.092,6.263L50.665,6.736L51.211,7.235C51.387,7.409,51.558,7.587,51.736,7.766C54.547,10.717,56.228,14.564,56.484,18.632C56.62,20.694,56.403,22.764,55.843,24.753C55.554,25.764,55.178,26.747,54.716,27.688L54.639,27.869L54.548,28.047L54.369,28.397L54.177,28.741L53.985,29.083L53.56,29.755C53.423,29.981,53.268,30.202,53.121,30.417L53.654,29.826C53.815,29.624,53.993,29.411,54.153,29.201L54.393,28.88C54.471,28.773,54.555,28.67,54.624,28.562L54.847,28.226L54.963,28.063L55.07,27.89C55.656,26.97,56.15,25.998,56.552,24.982C57.353,22.949,57.775,20.787,57.797,18.603C57.805,17.496,57.717,16.39,57.535,15.298ZM10.104,45.045L7.705,44.328L12.153,39.804L12.768,42.142L10.104,45.045ZM19.081,42.418L15.319,41.364L14.321,37.581L17.061,34.797L20.807,35.826L21.816,39.649L19.081,42.418ZM21.477,33.228L19.265,32.621L23.426,28.399C23.781,28.991,24.162,29.561,24.574,30.107L21.477,33.228ZM21.477,33.228"/>
</g>
  <g id="Thin-S" transform="matrix(1.0,0.0,0.0,1.0,828.8113503069196,633.1849448242187)">  <path fill-opacity="1" fill-rule="nonzero" stroke-width="1px" stroke-opacity="1" stroke-miterlimit="4" stroke-dasharray="none" stroke-linecap="butt" fill="#000000" stroke-linejoin="miter" stroke="none" d="M57.535,15.298L57.38,14.518L57.18,13.737C57.18,13.606,57.101,13.472,57.064,13.338L56.949,12.933C56.925,12.87,56.905,12.805,56.888,12.739L56.817,12.503L56.673,12.109C56.291,11.058,55.811,10.047,55.238,9.087C52.354,4.151,47.329,0.846,41.653,0.155C40.537,0.01,39.41,-0.034,38.285,0.024C37.159,0.1,36.041,0.283,34.949,0.57C32.741,1.126,30.652,2.077,28.783,3.379C21.641,8.438,18.895,17.73,22.139,25.859L0,48.563L2.265,54.802L6.389,55.17L3.352,53.673L2.627,49.272L5.564,46.459L9.526,47.394L11.066,51.597L9.332,54.164L12.106,52.22L14.465,52.393L12.361,51.363L11.628,46.745L14.641,43.986L18.571,45.053L19.951,49.054L17.061,53.063L21.8,49.545L20.867,44.407L23.723,41.509L28.962,42.562L31.728,38.422L28.347,40.237L24.393,38.929L23.384,35.12L26.319,32.143L26.474,32.298L27.091,32.86C28.745,34.317,30.655,35.454,32.724,36.215L33.107,36.355L33.302,36.425L33.494,36.478C33.756,36.557,34.011,36.643,34.263,36.704L35.036,36.901L35.805,37.048C39.011,37.571,42.294,37.172,45.284,35.903C45.03,35.975,44.774,36.036,44.514,36.087C43.251,36.38,41.958,36.532,40.66,36.538C40.153,36.549,39.628,36.541,39.118,36.478C38.097,36.396,37.084,36.226,36.092,35.971C32.148,34.94,28.695,32.548,26.345,29.217C25.77,28.398,25.266,27.531,24.84,26.626C24.415,25.726,24.073,24.79,23.815,23.828C23.55,22.868,23.372,21.886,23.284,20.894C23.208,19.906,23.208,18.913,23.284,17.925C23.363,16.94,23.526,15.965,23.776,15.014C24.035,14.063,24.371,13.134,24.779,12.237C25.181,11.357,25.659,10.514,26.203,9.715C27.313,8.099,28.707,6.698,30.317,5.58C33.539,3.317,37.469,2.294,41.385,2.698C44.32,2.987,47.128,4.064,49.514,5.817L50.092,6.263L50.665,6.736L51.211,7.235C51.387,7.409,51.558,7.587,51.736,7.766C54.547,10.717,56.228,14.564,56.484,18.632C56.62,20.694,56.403,22.764,55.843,24.753C55.554,25.764,55.178,26.747,54.716,27.688L54.639,27.869L54.548,28.047L54.369,28.397L54.177,28.741L53.985,29.083L53.56,29.755C53.423,29.981,53.268,30.202,53.121,30.417L53.654,29.826C53.815,29.624,53.993,29.411,54.153,29.201L54.393,28.88C54.471,28.773,54.555,28.67,54.624,28.562L54.847,28.226L54.963,28.063L55.07,27.89C55.656,26.97,56.15,25.998,56.552,24.982C57.353,22.949,57.775,20.787,57.797,18.603C57.805,17.496,57.717,16.39,57.535,15.298ZM10.104,45.045L7.705,44.328L12.153,39.804L12.768,42.142L10.104,45.045ZM19.081,42.418L15.319,41.364L14.321,37.581L17.061,34.797L20.807,35.826L21.816,39.649L19.081,42.418ZM21.477,33.228L19.265,32.621L23.426,28.399C23.781,28.991,24.162,29.561,24.574,30.107L21.477,33.228ZM21.477,33.228"/>
</g>
  <g id="Ultralight-S" transform="matrix(1.0,0.0,0.0,1.0,532.1013503069196,633.1849448242187)">  <path stroke-dasharray="none" fill-opacity="1" stroke-width="1px" stroke-opacity="1" fill="#000000" stroke="none" stroke-linejoin="miter" fill-rule="nonzero" stroke-miterlimit="4" stroke-linecap="butt" d="M57.535,15.298L57.38,14.518L57.18,13.737C57.18,13.606,57.101,13.472,57.064,13.338L56.949,12.933C56.925,12.87,56.905,12.805,56.888,12.739L56.817,12.503L56.673,12.109C56.291,11.058,55.811,10.047,55.238,9.087C52.354,4.151,47.329,0.846,41.653,0.155C40.537,0.01,39.41,-0.034,38.285,0.024C37.159,0.1,36.041,0.283,34.949,0.57C32.741,1.126,30.652,2.077,28.783,3.379C21.641,8.438,18.895,17.73,22.139,25.859L0,48.563L2.265,54.802L6.389,55.17L3.352,53.673L2.627,49.272L5.564,46.459L9.526,47.394L11.066,51.597L9.332,54.164L12.106,52.22L14.465,52.393L12.361,51.363L11.628,46.745L14.641,43.986L18.571,45.053L19.951,49.054L17.061,53.063L21.8,49.545L20.867,44.407L23.723,41.509L28.962,42.562L31.728,38.422L28.347,40.237L24.393,38.929L23.384,35.12L26.319,32.143L26.474,32.298L27.091,32.86C28.745,34.317,30.655,35.454,32.724,36.215L33.107,36.355L33.302,36.425L33.494,36.478C33.756,36.557,34.011,36.643,34.263,36.704L35.036,36.901L35.805,37.048C39.011,37.571,42.294,37.172,45.284,35.903C45.03,35.975,44.774,36.036,44.514,36.087C43.251,36.38,41.958,36.532,40.66,36.538C40.153,36.549,39.628,36.541,39.118,36.478C38.097,36.396,37.084,36.226,36.092,35.971C32.148,34.94,28.695,32.548,26.345,29.217C25.77,28.398,25.266,27.531,24.84,26.626C24.415,25.726,24.073,24.79,23.815,23.828C23.55,22.868,23.372,21.886,23.284,20.894C23.208,19.906,23.208,18.913,23.284,17.925C23.363,16.94,23.526,15.965,23.776,15.014C24.035,14.063,24.371,13.134,24.779,12.237C25.181,11.357,25.659,10.514,26.203,9.715C27.313,8.099,28.707,6.698,30.317,5.58C33.539,3.317,37.469,2.294,41.385,2.698C44.32,2.987,47.128,4.064,49.514,5.817L50.092,6.263L50.665,6.736L51.211,7.235C51.387,7.409,51.558,7.587,51.736,7.766C54.547,10.717,56.228,14.564,56.484,18.632C56.62,20.694,56.403,22.764,55.843,24.753C55.554,25.764,55.178,26.747,54.716,27.688L54.639,27.869L54.548,28.047L54.369,28.397L54.177,28.741L53.985,29.083L53.56,29.755C53.423,29.981,53.268,30.202,53.121,30.417L53.654,29.826C53.815,29.624,53.993,29.411,54.153,29.201L54.393,28.88C54.471,28.773,54.555,28.67,54.624,28.562L54.847,28.226L54.963,28.063L55.07,27.89C55.656,26.97,56.15,25.998,56.552,24.982C57.353,22.949,57.775,20.787,57.797,18.603C57.805,17.496,57.717,16.39,57.535,15.298ZM10.104,45.045L7.705,44.328L12.153,39.804L12.768,42.142L10.104,45.045ZM19.081,42.418L15.319,41.364L14.321,37.581L17.061,34.797L20.807,35.826L21.816,39.649L19.081,42.418ZM21.477,33.228L19.265,32.621L23.426,28.399C23.781,28.991,24.162,29.561,24.574,30.107L21.477,33.228ZM21.477,33.228"/>
</g>
 </g>
</svg>
